<svg width="24" height="24" viewBox="0 0 24 24" fill="none" xmlns="http://www.w3.org/2000/svg">
<g id="icon-24-geo">
<path id="Subtract" fill-rule="evenodd" clip-rule="evenodd" d="M11.9969 2C7.59096 2 4 5.27438 4 9.29752C4 12.0326 7.71469 16.6332 10.2405 19.7613C10.9604 20.6529 11.5837 21.4249 11.9969 22C12.411 21.4238 13.0363 20.6498 13.7586 19.7559C16.2859 16.6278 20 12.031 20 9.29752C20 5.27438 16.409 2 11.9969 2ZM14 10C14 11.1046 13.1046 12 12 12C10.8954 12 10 11.1046 10 10C10 8.89543 10.8954 8 12 8C13.1046 8 14 8.89543 14 10Z" fill="#C7A462"/>
</g>
</svg>
