<svg width="24" height="24" viewBox="0 0 24 24" fill="none" xmlns="http://www.w3.org/2000/svg">
<path fill-rule="evenodd" clip-rule="evenodd" d="M8.79078 14.6273C11.6677 17.5042 16.3321 17.5042 19.209 14.6273C22.0859 11.7504 22.0859 7.08598 19.209 4.20907C16.3321 1.33216 11.6677 1.33216 8.79078 4.20907C5.91387 7.08598 5.91387 11.7504 8.79078 14.6273ZM13.4461 9.31118C14.3528 10.2178 15.8228 10.2178 16.7294 9.31118C17.6361 8.40451 17.6361 6.93452 16.7294 6.02786C15.8228 5.12119 14.3528 5.12119 13.4461 6.02786C12.5395 6.93452 12.5395 8.40451 13.4461 9.31118Z" fill="#C7A462"/>
<path d="M7.89919 12.2477L10.6739 15.0224L4.96869 20.7276L2.09302 20.8286L2.19398 17.9529L7.89919 12.2477Z" fill="#C7A462"/>
</svg>
