<svg width="24" height="24" viewBox="0 0 24 24" fill="none" xmlns="http://www.w3.org/2000/svg">
<g id="icon-24-capacity">
<g id="10 Room">
<g id="Rooms 01">
<g id="icon geo copy">
<path id="Subtract" d="M6 17C6 15.3431 7.34315 14 9 14H15C16.6569 14 18 15.3431 18 17V20H6V17Z" fill="#C7A462"/>
<path id="Rectangle 78" d="M6 21H9V22H6V21Z" fill="#C7A462"/>
<path id="Rectangle 79" d="M15 21H18V22H15V21Z" fill="#C7A462"/>
<path id="Rectangle 76" d="M7.12338 4.11043C7.05756 3.51807 7.52125 3 8.11726 3H15.8827C16.4787 3 16.9424 3.51807 16.8766 4.11043L16.0988 11.1104C16.0426 11.6169 15.6145 12 15.105 12H8.89504C8.38549 12 7.95743 11.6169 7.90116 11.1104L7.12338 4.11043Z" fill="#C7A462"/>
</g>
</g>
</g>
</g>
</svg>
