<svg width="18" height="18" viewBox="0 0 18 18" fill="none" xmlns="http://www.w3.org/2000/svg">
<path fill-rule="evenodd" clip-rule="evenodd" d="M17.0627 10.7578C17.1875 10.1562 17.2501 9.5701 17.2501 8.99994C17.2501 7.88276 17.0335 6.81438 16.5997 5.79481C16.1662 4.77532 15.5802 3.8965 14.8419 3.15817C14.1036 2.41984 13.2249 1.83392 12.2054 1.40023C11.1856 0.966828 10.1175 0.749944 9.00016 0.749944C8.42987 0.749944 7.84385 0.812497 7.24228 0.937522C6.42977 0.312521 5.51567 0 4.50002 0C3.25788 0 2.19737 0.439393 1.3184 1.31818C0.439359 2.19721 0 3.2577 0 4.49987C0 5.5155 0.312526 6.42958 0.937455 7.24208C0.81251 7.8436 0.749955 8.42965 0.749955 8.99994C0.749955 10.117 0.96668 11.1853 1.40025 12.205C1.83378 13.2245 2.41976 14.1033 3.15814 14.8418C3.89644 15.58 4.7754 16.1658 5.79491 16.5995C6.81449 17.0331 7.88289 17.2499 9.00008 17.2499C9.57034 17.2499 10.1564 17.1873 10.7583 17.0622C11.5706 17.6873 12.4846 18 13.5003 18C14.7423 18 15.8031 17.5604 16.6816 16.6816C17.5606 15.8026 18 14.7421 18 13.4998C17.9998 12.4843 17.6874 11.5704 17.0627 10.7578ZM13.3592 12.498C13.1016 12.955 12.7558 13.3202 12.3223 13.5937C11.8885 13.8672 11.4101 14.0759 10.8867 14.2206C10.3633 14.365 9.81649 14.4374 9.24603 14.4374C7.92586 14.4374 6.78921 14.1815 5.83599 13.6697C4.88278 13.1578 4.40623 12.5429 4.40623 11.824C4.40623 11.4725 4.50589 11.1798 4.70513 10.9453C4.90433 10.7108 5.19924 10.5938 5.58988 10.5938C5.81645 10.5938 6.02731 10.6563 6.22261 10.7812C6.4179 10.9062 6.59756 11.0568 6.76171 11.2326C6.92585 11.4085 7.10346 11.584 7.2949 11.7599C7.48622 11.9358 7.74013 12.0861 8.05651 12.2111C8.37298 12.3361 8.73041 12.3988 9.12897 12.3988C9.63675 12.3988 10.0468 12.2993 10.3596 12.1002C10.6719 11.9007 10.8282 11.6487 10.8282 11.3442C10.8282 11.0315 10.7033 10.7972 10.4534 10.641C10.2817 10.5313 9.84403 10.3907 9.14087 10.2189L7.42974 9.7968C6.96103 9.68753 6.55865 9.5607 6.22265 9.41626C5.88664 9.27162 5.57412 9.0824 5.28511 8.84782C4.99619 8.61354 4.77741 8.3187 4.62895 7.96309C4.48052 7.60771 4.40631 7.19159 4.40631 6.71505C4.40631 6.14469 4.53721 5.6429 4.79884 5.20918C5.06047 4.77553 5.40833 4.43563 5.84178 4.18956C6.27531 3.94345 6.74213 3.7599 7.24224 3.63881C7.74214 3.51769 8.2578 3.45714 8.78906 3.45714C9.53922 3.45714 10.2499 3.54703 10.9219 3.72669C11.5937 3.90635 12.1484 4.17002 12.5858 4.51768C13.0232 4.86546 13.2419 5.25412 13.2419 5.68374C13.2419 6.03518 13.1308 6.33608 12.9079 6.58601C12.6857 6.83589 12.3907 6.96092 12.0233 6.96092C11.8202 6.96092 11.6328 6.914 11.4609 6.82025C11.2891 6.72655 11.133 6.6133 10.9921 6.48048C10.8514 6.34774 10.7028 6.21684 10.5466 6.08796C10.3904 5.95908 10.1794 5.84776 9.9141 5.75401C9.64816 5.66027 9.34758 5.61335 9.01166 5.61335C7.88674 5.61335 7.32416 5.91393 7.32416 6.51561C7.32416 6.64836 7.35351 6.76558 7.41204 6.86713C7.47062 6.96868 7.53518 7.05073 7.60537 7.11324C7.67552 7.17583 7.79275 7.23826 7.95689 7.30082C8.12104 7.36341 8.25776 7.40844 8.36711 7.43561C8.47641 7.46295 8.64844 7.50395 8.88273 7.55858L10.1016 7.83979C10.4843 7.92582 10.8259 8.01571 11.1269 8.10933C11.4278 8.20324 11.7501 8.33594 12.0938 8.50788C12.4375 8.67974 12.7226 8.87105 12.9491 9.08203C13.1758 9.29317 13.3652 9.56046 13.5177 9.88468C13.6702 10.209 13.7461 10.5664 13.7461 10.9569C13.7461 11.5272 13.6174 12.041 13.3592 12.498Z" fill="#C7A462"/>
</svg>
