<svg width="18" height="18" viewBox="0 0 18 18" fill="none" xmlns="http://www.w3.org/2000/svg">
<path d="M17.5472 15.4622C17.3611 15.9341 17.08 16.3627 16.7213 16.7213C16.3627 17.08 15.9341 17.3611 15.4622 17.5472C14.0192 18.1192 10.5952 17.9872 9.00016 17.9872C7.40516 17.9872 3.97616 18.1142 2.53816 17.5472C2.06627 17.3611 1.63767 17.08 1.27899 16.7213C0.920314 16.3627 0.639217 15.9341 0.453163 15.4622C-0.118837 14.0202 0.0131634 10.5952 0.0131634 9.00016C0.0131634 7.40516 -0.113837 3.97616 0.453163 2.53816C0.639217 2.06627 0.920314 1.63767 1.27899 1.27899C1.63767 0.920314 2.06627 0.639217 2.53816 0.453163C3.98016 -0.118837 7.40516 0.0131634 9.00016 0.0131634C10.5952 0.0131634 14.0242 -0.113837 15.4622 0.453163C15.9341 0.639217 16.3627 0.920314 16.7213 1.27899C17.08 1.63767 17.3611 2.06627 17.5472 2.53816C18.1192 3.98116 17.9872 7.40516 17.9872 9.00016C17.9872 10.5952 18.1192 14.0242 17.5472 15.4622ZM9.00016 3.38016C8.26175 3.37898 7.53037 3.52353 6.84793 3.80553C6.16549 4.08753 5.54541 4.50143 5.02323 5.02352C4.50105 5.54561 4.08703 6.16562 3.80491 6.84801C3.52279 7.5304 3.37811 8.26175 3.37916 9.00016C3.37798 9.73866 3.52256 10.4701 3.80462 11.1526C4.08668 11.8351 4.50068 12.4553 5.02287 12.9775C5.54507 13.4996 6.16519 13.9136 6.8477 14.1957C7.5302 14.4778 8.26167 14.6223 9.00016 14.6212C9.73866 14.6223 10.4701 14.4778 11.1526 14.1957C11.8351 13.9136 12.4553 13.4996 12.9775 12.9775C13.4996 12.4553 13.9136 11.8351 14.1957 11.1526C14.4778 10.4701 14.6223 9.73866 14.6212 9.00016C14.6223 8.26167 14.4778 7.5302 14.1957 6.8477C13.9136 6.16519 13.4996 5.54507 12.9775 5.02287C12.4553 4.50068 11.8351 4.08668 11.1526 3.80462C10.4701 3.52256 9.73866 3.37798 9.00016 3.37916V3.38016ZM16.1622 3.15016C16.1622 2.978 16.1283 2.80752 16.0624 2.64847C15.9965 2.48941 15.8999 2.34488 15.7782 2.22315C15.6564 2.10141 15.5119 2.00484 15.3529 1.93896C15.1938 1.87307 15.0233 1.83916 14.8512 1.83916C14.679 1.83916 14.5085 1.87307 14.3495 1.93896C14.1904 2.00484 14.0459 2.10141 13.9241 2.22315C13.8024 2.34488 13.7058 2.48941 13.64 2.64847C13.5741 2.80752 13.5402 2.978 13.5402 3.15016C13.5402 3.49786 13.6783 3.83132 13.9241 4.07718C14.17 4.32304 14.5035 4.46116 14.8512 4.46116C15.1989 4.46116 15.5323 4.32304 15.7782 4.07718C16.024 3.83132 16.1622 3.49786 16.1622 3.15016Z" fill="#C7A462"/>
<path d="M9.00039 12.6004C7.02039 12.6004 5.40039 10.9864 5.40039 9.00039C5.40039 7.01439 7.01439 5.40039 9.00039 5.40039C10.9864 5.40039 12.6004 7.01439 12.6004 9.00039C12.6004 10.9864 10.9804 12.6004 9.00039 12.6004Z" fill="#C7A462"/>
</svg>
