<svg width="16" height="17" viewBox="0 0 16 17" fill="none" xmlns="http://www.w3.org/2000/svg">
<path d="M15.5972 14.2439C15.4318 14.6634 15.182 15.0443 14.8631 15.3631C14.5443 15.682 14.1634 15.9318 13.7439 16.0972C12.4613 16.6056 9.41775 16.4883 8 16.4883C6.58225 16.4883 3.5343 16.6012 2.2561 16.0972C1.83665 15.9318 1.45568 15.682 1.13686 15.3631C0.818042 15.0443 0.568183 14.6634 0.402805 14.2439C-0.105631 12.9621 0.0117006 9.91775 0.0117006 8.5C0.0117006 7.08225 -0.101186 4.0343 0.402805 2.7561C0.568183 2.33665 0.818042 1.95568 1.13686 1.63686C1.45568 1.31804 1.83665 1.06818 2.2561 0.902805C3.53786 0.394369 6.58225 0.511701 8 0.511701C9.41775 0.511701 12.4657 0.398814 13.7439 0.902805C14.1634 1.06818 14.5443 1.31804 14.8631 1.63686C15.182 1.95568 15.4318 2.33665 15.5972 2.7561C16.1056 4.03875 15.9883 7.08225 15.9883 8.5C15.9883 9.91775 16.1056 12.9657 15.5972 14.2439ZM8 3.50454C7.34365 3.50348 6.69354 3.63197 6.08694 3.88263C5.48034 4.13329 4.92916 4.5012 4.46501 4.96527C4.00086 5.42934 3.63285 5.98045 3.38208 6.58701C3.13131 7.19356 3.00271 7.84365 3.00365 8.5C3.00259 9.15643 3.13111 9.80661 3.38183 10.4133C3.63254 11.0199 4.00053 11.5711 4.46469 12.0353C4.92886 12.4995 5.48007 12.8675 6.08673 13.1182C6.69339 13.3689 7.34357 13.4974 8 13.4964C8.65643 13.4974 9.30661 13.3689 9.91327 13.1182C10.5199 12.8675 11.0711 12.4995 11.5353 12.0353C11.9995 11.5711 12.3675 11.0199 12.6182 10.4133C12.8689 9.80661 12.9974 9.15643 12.9964 8.5C12.9974 7.84357 12.8689 7.19339 12.6182 6.58673C12.3675 5.98007 11.9995 5.42886 11.5353 4.96469C11.0711 4.50053 10.5199 4.13254 9.91327 3.88183C9.30661 3.63111 8.65643 3.50259 8 3.50365V3.50454ZM14.3661 3.30009C14.3661 3.14706 14.336 2.99553 14.2774 2.85415C14.2188 2.71277 14.133 2.5843 14.0248 2.47609C13.9166 2.36789 13.7881 2.28205 13.6467 2.22349C13.5054 2.16492 13.3538 2.13478 13.2008 2.13478C13.0478 2.13478 12.8962 2.16492 12.7548 2.22349C12.6135 2.28205 12.485 2.36789 12.3768 2.47609C12.2686 2.5843 12.1827 2.71277 12.1242 2.85415C12.0656 2.99553 12.0355 3.14706 12.0355 3.30009C12.0355 3.60915 12.1583 3.90556 12.3768 4.12409C12.5953 4.34263 12.8917 4.46541 13.2008 4.46541C13.5099 4.46541 13.8063 4.34263 14.0248 4.12409C14.2433 3.90556 14.3661 3.60915 14.3661 3.30009Z" fill="white"/>
<path d="M7.99877 11.7002C6.2388 11.7002 4.79883 10.2655 4.79883 8.50024C4.79883 6.73493 6.23347 5.30029 7.99877 5.30029C9.76407 5.30029 11.1987 6.73493 11.1987 8.50024C11.1987 10.2655 9.75874 11.7002 7.99877 11.7002Z" fill="white"/>
</svg>
