<svg width="17" height="17" viewBox="0 0 17 17" fill="none" xmlns="http://www.w3.org/2000/svg">
<path fill-rule="evenodd" clip-rule="evenodd" d="M16.1148 10.1601C16.2326 9.59192 16.2917 9.03843 16.2917 8.49994C16.2917 7.44483 16.0872 6.43581 15.6775 5.47288C15.2681 4.51003 14.7147 3.68002 14.0174 2.98272C13.3201 2.28541 12.4902 1.73203 11.5273 1.32244C10.5642 0.913116 9.55544 0.70828 8.50016 0.70828C7.96154 0.70828 7.40808 0.767358 6.83993 0.885437C6.07256 0.295159 5.20924 0 4.25002 0C3.07689 0 2.07529 0.414982 1.24516 1.24495C0.41495 2.07514 0 3.07672 0 4.24987C0 5.20908 0.295163 6.07238 0.885374 6.83974C0.767371 7.40785 0.708291 7.96134 0.708291 8.49994C0.708291 9.55494 0.912975 10.5639 1.32246 11.5269C1.7319 12.4898 2.28533 13.3198 2.98269 14.0172C3.67997 14.7145 4.5101 15.2677 5.47297 15.6773C6.43591 16.0868 7.44495 16.2916 8.50008 16.2916C9.03865 16.2916 9.59211 16.2324 10.1606 16.1143C10.9278 16.7047 11.791 17 12.7503 17C13.9233 17 14.9252 16.5848 15.7548 15.7549C16.5851 14.9247 17 13.9231 17 12.7498C16.9998 11.7908 16.7048 10.9276 16.1148 10.1601ZM12.6171 11.8036C12.3738 12.2353 12.0471 12.5802 11.6377 12.8385C11.2281 13.0968 10.7762 13.2939 10.2819 13.4306C9.78757 13.5669 9.27113 13.6354 8.73236 13.6354C7.48554 13.6354 6.41203 13.3937 5.51177 12.9103C4.61151 12.4268 4.16144 11.846 4.16144 11.1671C4.16144 10.8352 4.25556 10.5587 4.44373 10.3372C4.63186 10.1158 4.9104 10.0053 5.27933 10.0053C5.49332 10.0053 5.69246 10.0643 5.87691 10.1822C6.06136 10.3003 6.23103 10.4425 6.38606 10.6086C6.54108 10.7747 6.70882 10.9405 6.88963 11.1066C7.07031 11.2727 7.31012 11.4146 7.60893 11.5327C7.90781 11.6508 8.24539 11.7099 8.6218 11.7099C9.10138 11.7099 9.48861 11.616 9.78404 11.4279C10.0791 11.2396 10.2266 11.0015 10.2266 10.7139C10.2266 10.4186 10.1087 10.1974 9.87266 10.0498C9.71054 9.9462 9.29714 9.81343 8.63304 9.65119L7.01697 9.25253C6.57431 9.14934 6.19428 9.02955 5.87695 8.89314C5.55961 8.75653 5.26445 8.57782 4.99149 8.35628C4.71862 8.13501 4.512 7.85655 4.37178 7.52069C4.23161 7.18506 4.16152 6.79206 4.16152 6.342C4.16152 5.80331 4.28514 5.32941 4.53224 4.91978C4.77933 4.51022 5.10787 4.18921 5.51724 3.95681C5.92668 3.72437 6.36757 3.55101 6.83989 3.43666C7.31202 3.32226 7.79904 3.26508 8.30078 3.26508C9.00927 3.26508 9.68042 3.34998 10.3151 3.51965C10.9496 3.68933 11.4735 3.93836 11.8866 4.2667C12.2997 4.59516 12.5063 4.96222 12.5063 5.36798C12.5063 5.69989 12.4013 5.98408 12.1908 6.22012C11.9809 6.45612 11.7023 6.5742 11.3554 6.5742C11.1636 6.5742 10.9866 6.52989 10.8242 6.44135C10.6619 6.35285 10.5145 6.2459 10.3814 6.12045C10.2486 5.99509 10.1082 5.87146 9.9607 5.74974C9.81316 5.62802 9.6139 5.52289 9.36332 5.43435C9.11215 5.34581 8.82827 5.3015 8.51101 5.3015C7.44859 5.3015 6.91727 5.58538 6.91727 6.15364C6.91727 6.279 6.94498 6.38972 7.00026 6.48562C7.05558 6.58153 7.11656 6.65902 7.18285 6.71806C7.2491 6.77718 7.35982 6.83614 7.51484 6.89522C7.66987 6.95433 7.799 6.99686 7.90227 7.02252C8.0055 7.04834 8.16797 7.08707 8.38925 7.13866L9.54036 7.40424C9.90185 7.48549 10.2245 7.57039 10.5088 7.65881C10.793 7.74751 11.0973 7.87284 11.4219 8.03522C11.7465 8.19753 12.0158 8.37822 12.2297 8.57747C12.4438 8.77688 12.6227 9.02932 12.7667 9.33553C12.9107 9.64181 12.9824 9.97942 12.9824 10.3482C12.9824 10.8868 12.8609 11.3721 12.6171 11.8036Z" fill="white"/>
</svg>
