<svg width="20" height="24" viewBox="0 0 20 24" fill="none" xmlns="http://www.w3.org/2000/svg">
<path d="M5.42854 0.0692002C5.58074 0.0961251 5.68928 0.129852 5.75365 0.170543C5.85729 0.232704 6.01541 0.542086 6.22827 1.09861C6.44104 1.65499 6.67796 2.34384 6.93901 3.16453L7.35141 4.39924C7.38097 4.4776 7.44823 4.62844 7.55334 4.85165C7.6582 5.07481 7.73232 5.27057 7.77532 5.43896C7.81819 5.60733 7.82782 5.76237 7.80391 5.9044C7.76087 6.16001 7.47966 6.45369 6.96037 6.78558C6.44108 7.11747 5.91947 7.44187 5.39571 7.75857C4.872 8.07503 4.59077 8.34685 4.55252 8.57401C4.53578 8.67348 4.54037 8.79478 4.56613 8.93815C4.59178 9.0815 4.61826 9.19935 4.64557 9.29184C4.67288 9.38433 4.71811 9.51674 4.78194 9.68869C4.84554 9.86061 4.88766 9.97049 4.90823 10.0181C5.43316 11.5578 6.10545 12.9226 6.92436 14.1125C7.74351 15.3025 8.77263 16.409 10.012 17.432C10.0488 17.4677 10.1354 17.5453 10.2722 17.6645C10.4089 17.7837 10.5153 17.872 10.5912 17.9291C10.667 17.9865 10.7666 18.0516 10.8897 18.1244C11.013 18.1973 11.1231 18.2423 11.2199 18.2594C11.3999 18.2913 11.6563 18.1869 11.9891 17.9461C12.3219 17.7054 12.6423 17.4332 12.9501 17.1296C13.2579 16.8259 13.585 16.5549 13.9316 16.3166C14.2783 16.0784 14.5555 15.9776 14.7632 16.0143C14.9016 16.0388 15.041 16.1 15.1814 16.1978C15.3218 16.2958 15.477 16.4329 15.6468 16.6091C15.8168 16.7853 15.9327 16.9008 15.9948 16.9556C16.0707 17.0128 16.2502 17.1542 16.533 17.3797C16.8158 17.6051 17.1008 17.8382 17.3883 18.079C17.6757 18.32 17.9729 18.5662 18.2798 18.8179C18.5868 19.0695 18.8373 19.2964 19.0312 19.4989C19.2254 19.7013 19.3303 19.8404 19.346 19.9163C19.3617 19.9922 19.3565 20.1081 19.3302 20.2642C19.2155 20.9456 18.9426 21.6353 18.5113 22.3335C18.1106 22.9349 17.3609 23.387 16.262 23.6895C15.1631 23.992 14.219 24.0735 13.4299 23.9339C13.2083 23.8947 12.9759 23.8353 12.7328 23.7556C12.4895 23.6761 12.2843 23.6033 12.1173 23.5371C11.9502 23.4709 11.7325 23.3668 11.4641 23.2243C11.1959 23.0818 11.0036 22.9747 10.8874 22.903C10.7711 22.8313 10.5576 22.7022 10.2468 22.5157C9.93603 22.3291 9.74144 22.2144 9.6632 22.1712C7.53592 20.9179 5.57574 18.9891 3.78278 16.3846C1.99007 13.7801 0.874093 11.2406 0.435331 8.76604C0.422022 8.67603 0.381672 8.4495 0.314458 8.08685C0.247243 7.72421 0.199915 7.47472 0.173072 7.33849C0.146249 7.20213 0.112219 6.98051 0.0711012 6.67364C0.0301033 6.36679 0.00742362 6.12166 0.00262494 5.93792C-0.00211605 5.75457 -0.000488617 5.53192 0.0079448 5.27032C0.0163782 5.00872 0.0396462 4.76439 0.0778892 4.53724C0.214073 3.72834 0.605354 2.84383 1.25167 1.88406C1.89815 0.924069 2.56479 0.35149 3.25186 0.16624C4.0385 -0.0161728 4.76387 -0.0483842 5.42854 0.0692002Z" fill="white"/>
</svg>
