<svg width="20" height="22" viewBox="0 0 20 22" fill="none" xmlns="http://www.w3.org/2000/svg">
<path d="M19.91 14.4719C19.1688 10.6135 18.4465 6.75151 17.7228 2.89C17.4105 1.22346 16.0421 0.00972736 14.3537 0H5.64628C3.9581 0.00972736 2.5897 1.22346 2.27721 2.89C1.55325 6.75151 0.831237 10.6135 0.0900128 14.4719C-0.454233 17.3057 1.5299 19.7482 4.40993 19.7533C6.27321 19.7565 8.13672 19.7541 10 19.7543C11.8633 19.7541 13.7268 19.7565 15.5901 19.7533C18.4701 19.7482 20.4542 17.3057 19.91 14.4719ZM7.35902 1.76357H12.641C13.069 1.76357 13.416 2.11059 13.416 2.53884C13.416 2.96684 13.069 3.31411 12.641 3.31411H7.35902C6.93102 3.31411 6.584 2.96684 6.584 2.53884C6.584 2.11059 6.93102 1.76357 7.35902 1.76357ZM4.26037 17.365C3.40048 17.3731 2.72345 16.7106 2.72126 15.859C2.71883 14.9969 3.37713 14.3286 4.23216 14.3252C5.06993 14.3221 5.74477 14.9809 5.75717 15.8147C5.7703 16.6707 5.10763 17.3573 4.26037 17.365ZM4.35084 12.5728C3.58578 12.5728 3.22465 11.8625 3.36546 11.1147C3.61861 9.77016 3.89487 8.42973 4.1631 7.08784C4.23946 6.70628 4.31655 6.32448 4.40215 5.94487C4.53031 5.37898 4.8141 5.16401 5.40018 5.14285H14.5998C15.1857 5.16401 15.4694 5.37898 15.5978 5.94487C15.6837 6.32473 15.7605 6.70628 15.8369 7.08784C16.1054 8.42973 16.3814 9.76991 16.6345 11.1147C16.7753 11.8625 16.4145 12.5728 15.6492 12.5728H4.35084ZM15.7396 17.365C14.8926 17.3575 14.2297 16.671 14.2428 15.8147C14.2555 14.9809 14.9301 14.3221 15.7678 14.3252C16.6229 14.3286 17.2812 14.9969 17.2787 15.859C17.2765 16.7104 16.5995 17.3731 15.7396 17.365ZM3.31244 21.6113H16.6876V20.5777H3.31244V21.6113Z" fill="#C7A462"/>
</svg>
