<svg width="15" height="20" viewBox="0 0 15 20" fill="none" xmlns="http://www.w3.org/2000/svg">
<path fill-rule="evenodd" clip-rule="evenodd" d="M7.49713 0C3.36653 0 0 3.27438 0 7.29752C0 10.0326 3.48252 14.6332 5.85046 17.7613C6.52538 18.6529 7.10975 19.4249 7.49713 20C7.88529 19.4237 8.47155 18.6498 9.14867 17.7559C11.5181 14.6278 15 10.031 15 7.29752C15 3.27438 11.6335 0 7.49713 0ZM10 7.5C10 8.88071 8.88071 10 7.5 10C6.11929 10 5 8.88071 5 7.5C5 6.11929 6.11929 5 7.5 5C8.88071 5 10 6.11929 10 7.5Z" fill="#FCDB9D"/>
</svg>
