<svg width="70" height="48" viewBox="0 0 70 48" fill="none" xmlns="http://www.w3.org/2000/svg">
<path fill-rule="evenodd" clip-rule="evenodd" d="M36.6735 0.000198364C30.5798 0.000198364 25.0748 1.53459 20.7326 4.37189L13.4291 4.37839C13.4291 4.37839 15.1523 6.67881 15.7116 8.99852C14.2887 10.9334 13.4347 13.3133 13.4347 15.8949C13.4347 22.3255 18.6697 27.5493 25.1028 27.5493C28.7779 27.5493 32.0557 25.8439 34.1965 23.1813L36.6778 26.8902L39.1834 23.1496C40.3087 24.5829 41.7598 25.7409 43.4653 26.5235C46.2982 27.8254 49.4668 27.9527 52.3899 26.8756C58.4258 24.6478 61.5213 17.9254 59.2924 11.8952C58.8983 10.8275 58.3572 9.85519 57.7102 8.98795C58.2601 6.65366 60.004 4.32295 60.004 4.32295L52.2212 4.31727C47.8549 1.497 42.5497 -1.90735e-06 36.6728 -1.90735e-06L36.6735 0.000198364ZM12.6476 34.0116C12.1361 34.0116 11.721 34.4291 11.721 34.939C11.721 35.449 12.1361 35.8641 12.6476 35.8641C13.1576 35.8641 13.5735 35.449 13.5735 34.939C13.5735 34.4291 13.1576 34.0116 12.6476 34.0116ZM3.06796 34.8375L2.95924 34.8765L1.55629 35.3576V37.1898H0V38.4191H1.51084V42.3617C1.51084 44.24 2.15083 45.0053 3.71704 45.0053C4.11691 45.0053 4.49758 44.9543 4.87978 44.8519L4.93902 44.8349L4.9236 43.5635L4.81325 43.5991C4.50738 43.7098 4.26553 43.7622 4.0765 43.7622C3.34325 43.7622 3.06794 43.3467 3.06794 42.2287V38.4191H4.86522V37.1898H3.06794V34.8375L3.06796 34.8375ZM18.9279 37.0096C17.8602 37.0096 16.961 37.5196 16.3622 38.4377V37.1898H14.9382V48H16.4953V43.8074C17.0577 44.5723 17.8648 44.9904 18.8686 44.9904C20.8378 44.9904 22.1078 43.3761 22.1078 40.8814C22.1078 38.5653 20.8322 37.0094 18.9279 37.0094V37.0096ZM9.90074 37.0543C8.99765 37.0543 8.26976 37.5424 7.81381 38.4361V37.1898H6.39059V44.8697H7.94766V41.0155C7.94766 39.3968 8.6267 38.509 9.85691 38.509C10.034 38.509 10.2086 38.5358 10.4184 38.595L10.519 38.6242L10.5693 37.1077L9.90073 37.0542L9.90074 37.0543ZM11.8708 37.1898V44.8696H13.4288V37.1898H13.346H11.8708ZM18.5536 38.2982C19.7574 38.2982 20.4783 39.2972 20.4783 40.971C20.4783 42.6758 19.7168 43.7314 18.4944 43.7314C17.2616 43.7314 16.4951 42.6808 16.4951 40.9848C16.4951 39.3537 17.3032 38.2982 18.5536 38.2982ZM47.9757 4.28696C46.7533 4.32383 45.5153 4.5461 44.3038 4.99114C41.3796 6.07335 39.0531 8.22583 37.7492 11.0576C37.1603 12.335 36.8274 13.6857 36.721 15.0447C36.2879 9.08736 31.3712 4.36122 25.3328 4.24178C28.6734 2.81319 32.5105 2.03581 36.6706 2.03581C40.8577 2.03581 44.6387 2.79086 47.9757 4.28696ZM15.7908 15.8946C15.7908 10.7594 19.9685 6.58381 25.1025 6.58381C30.2336 6.58381 34.41 10.7594 34.41 15.8946C34.41 21.024 30.2336 25.2004 25.1025 25.2004C19.9689 25.2004 15.7908 21.0245 15.7908 15.8946ZM44.5016 7.20128C45.5552 6.81267 46.635 6.62735 47.6978 6.62519L47.698 6.62527C51.4938 6.61738 55.0725 8.94774 56.4621 12.7114C58.2381 17.5226 55.7674 22.8899 50.9517 24.6732C48.6194 25.5326 46.0895 25.4325 43.829 24.3892C41.5699 23.3493 39.8534 21.4916 38.9945 19.1605V19.1589C38.133 16.8266 38.2302 14.2979 39.2688 12.0395C40.3095 9.78178 42.1669 8.06227 44.5016 7.20128Z" fill="white"/>
<path d="M26.8868 15.7894C26.8868 16.8571 26.0175 17.729 24.9488 17.729C23.8759 17.729 23.0098 16.8571 23.0098 15.7894C23.0098 14.7186 23.8759 13.8514 24.9488 13.8514C26.0175 13.8514 26.8868 14.7186 26.8868 15.7894Z" fill="white"/>
<path d="M48.325 13.8516C47.2511 13.8516 46.3882 14.7192 46.3882 15.79C46.3882 16.8577 47.2511 17.7293 48.325 17.7293C49.3953 17.7293 50.261 16.8577 50.261 15.79C50.261 14.7192 49.3953 13.8516 48.325 13.8516ZM36.1564 33.5242V38.2328C35.5826 37.4336 34.7841 37.0092 33.7538 37.0092C31.8522 37.0092 30.5748 38.5785 30.5748 40.9097C30.5748 43.3119 31.8679 44.9902 33.7255 44.9902C34.8248 44.9902 35.6804 44.5032 36.2765 43.5565V44.8693H37.7151V33.5241H36.1564V33.5242ZM47.8697 34.0111C47.3582 34.0111 46.9439 34.4286 46.9439 34.9385C46.9439 35.4485 47.3582 35.8635 47.8697 35.8635C48.3797 35.8635 48.7955 35.4485 48.7955 34.9385C48.7955 34.4286 48.3797 34.0111 47.8697 34.0111ZM26.6578 37.0092C25.708 37.0092 24.8743 37.1893 24.1084 37.5586L24.0605 37.5805L24.0784 38.9104L24.1993 38.8414C24.932 38.4317 25.6231 38.2223 26.2562 38.2223C27.3831 38.2223 28.0283 38.8692 28.0283 39.9977V40.0626H27.1382C24.576 40.0626 23.1631 40.9913 23.1631 42.6769C23.1631 44.0297 24.1818 44.9748 25.6395 44.9748C26.7118 44.9748 27.5425 44.5536 28.1329 43.7601V44.8693H29.5415V40.2201C29.5415 38.0915 28.573 37.0094 26.6578 37.0094L26.6578 37.0092ZM60.4218 37.0092C58.0808 37.0092 56.626 38.5499 56.626 41.0306C56.626 43.5097 58.0808 45.0494 60.4218 45.0494C62.7726 45.0494 64.2337 43.5097 64.2337 41.0306C64.2337 38.5499 62.7726 37.0092 60.4218 37.0092ZM69.1929 37.0539C68.2935 37.0539 67.5635 37.542 67.106 38.4357V37.1894H65.6844V44.8692H67.2415V41.015C67.2415 39.3964 67.9189 38.5086 69.1507 38.5086C69.3283 38.5086 69.5013 38.5354 69.7106 38.5946L69.8112 38.6238L69.8631 37.1073L69.1929 37.0538L69.1929 37.0539ZM53.2982 37.1009C51.61 37.1009 50.4754 37.9264 50.4754 39.1586C50.4754 40.2398 51.2183 40.8105 52.5883 41.4768C53.4513 41.9031 53.9052 42.1525 53.9052 42.7507C53.9052 43.3635 53.3482 43.7617 52.4893 43.7617C51.8775 43.7617 51.2021 43.5877 50.5338 43.2611L50.4194 43.2035L50.3683 44.5577L50.4226 44.5796C51.0614 44.8325 51.7359 44.961 52.4292 44.961C54.3345 44.961 55.5653 44.0516 55.5653 42.6469C55.5653 41.4743 54.7848 40.8818 53.4362 40.2524C52.4474 39.7897 52.0324 39.515 52.0324 39.0247C52.0324 38.5584 52.4938 38.2547 53.2057 38.2547C53.8497 38.2547 54.479 38.3969 55.0736 38.6799L55.1831 38.7318L55.2537 37.4076L55.1937 37.3841C54.5445 37.1966 53.91 37.1009 53.2982 37.1009L53.2982 37.1009ZM38.6669 37.1894L42.431 44.8692L46.2998 37.1894H44.6721L42.4634 41.6221L40.4228 37.1894H38.6669H38.6669ZM47.0916 37.1894V44.8692H48.6503V37.1894H48.5659H47.0916H47.0916ZM60.4367 38.2385C61.7516 38.2385 62.5999 39.3285 62.5999 41.0151C62.5999 42.6914 61.7516 43.7747 60.4367 43.7747C59.1437 43.7747 58.2743 42.666 58.2743 41.0151C58.2743 39.3565 59.1437 38.2385 60.4367 38.2385ZM34.0996 38.2547C35.3885 38.2547 36.1557 39.2791 36.1557 41.0005C36.1557 42.64 35.3608 43.7025 34.1279 43.7025C32.9429 43.7025 32.2057 42.6659 32.2057 41.0005C32.2057 39.3326 32.9488 38.2547 34.0995 38.2547H34.0996ZM27.227 41.1596H28.0278V41.6294C28.0278 42.9531 27.2318 43.8064 25.9985 43.8064C25.2465 43.8064 24.7197 43.3108 24.7197 42.6014C24.7197 41.6719 25.6104 41.1596 27.227 41.1596Z" fill="white"/>
<path fill-rule="evenodd" clip-rule="evenodd" d="M19.1914 15.79C19.1914 12.6162 21.7771 10.0316 24.9573 10.0316C28.1293 10.0316 30.7111 12.6161 30.7111 15.79C30.7111 18.9655 28.1292 21.5518 24.9573 21.5518C21.7771 21.5518 19.1914 18.9656 19.1914 15.79ZM42.5623 15.79C42.5623 12.6162 45.147 10.0316 48.3241 10.0316C51.4989 10.0316 54.0816 12.6161 54.0816 15.79C54.0816 18.9655 51.499 21.5518 48.3241 21.5518C45.147 21.5518 42.5623 18.9656 42.5623 15.79ZM21.1737 15.7903C21.1737 13.7095 22.8707 12.0157 24.9572 12.0157C27.0344 12.0157 28.7262 13.7094 28.7262 15.7903C28.7262 17.8722 27.0344 19.5698 24.9572 19.5698C22.8707 19.5698 21.1737 17.8721 21.1737 15.7903ZM44.5469 15.7903C44.5469 13.7095 46.2416 12.0157 48.324 12.0157C50.4048 12.0157 52.097 13.7094 52.097 15.7903C52.097 17.8722 50.4048 19.5698 48.324 19.5698C46.2416 19.5698 44.5469 17.8721 44.5469 15.7903Z" fill="white"/>
</svg>
