<svg width="76" height="79" viewBox="0 0 76 79" fill="none" xmlns="http://www.w3.org/2000/svg">
<path fill-rule="evenodd" clip-rule="evenodd" d="M48.5783 0C52.2249 0 55.1867 2.9826 55.1867 6.65634L55.1867 28.0126C55.1867 31.6854 52.2249 34.669 48.5784 34.669H26.6084C26.5822 34.669 26.556 34.6688 26.5299 34.6685H20.0006L20.0006 28.1C20.0002 28.0709 20 28.0418 20 28.0126V6.65634C20 2.9826 22.9619 0 26.6084 0H48.5783ZM35.9914 22.9473L33.1574 22.9444V19.5305C33.1574 18.801 33.4383 18.4214 34.0579 18.3346H35.9914C37.3704 18.3346 38.2623 19.2105 38.2623 20.6282C38.2623 22.0842 37.3929 22.9459 35.9914 22.9473ZM33.1574 13.739V12.8404C33.1574 12.0541 33.4877 11.6801 34.2117 11.6318H35.6626C36.906 11.6318 37.6512 12.3811 37.6512 13.6367C37.6512 14.5922 37.1403 15.7084 35.7078 15.7084H33.1574V13.739ZM39.6102 17.1459L39.0979 16.8559L39.5453 16.4705C40.0661 16.0198 40.9383 15.006 40.9383 13.257C40.9383 10.5781 38.8763 8.85053 35.6852 8.85053H32.0438V8.84911H31.6289C30.6833 8.88466 29.9254 9.6596 29.9155 10.618V25.8181H35.7572C39.3039 25.8181 41.5932 23.8729 41.5932 20.8599C41.5932 19.2375 40.8536 17.8512 39.6102 17.1459ZM45.1901 21.6183C44.0448 21.6183 43.1152 22.5577 43.1152 23.7188C43.1152 24.8785 44.0448 25.8194 45.1901 25.8194C46.3383 25.8194 47.2722 24.8785 47.2722 23.7188C47.2722 22.5577 46.3383 21.6183 45.1901 21.6183Z" fill="white"/>
<path fill-rule="evenodd" clip-rule="evenodd" d="M29.8101 42.9474C29.8101 42.6427 29.9318 42.3505 30.1484 42.1351C30.3651 41.9196 30.6589 41.7986 30.9653 41.7986C31.2716 41.7986 31.5654 41.9196 31.7821 42.1351C31.9987 42.3505 32.1204 42.6427 32.1204 42.9474C32.1092 43.2447 31.9826 43.5261 31.7672 43.7325C31.5518 43.9388 31.2644 44.0542 30.9653 44.0542C30.6662 44.0542 30.3787 43.9388 30.1633 43.7325C29.9479 43.5261 29.8213 43.2447 29.8101 42.9474ZM48.0353 50.6084C48.0355 49.971 48.5519 49.456 49.188 49.456C49.4952 49.456 49.7899 49.5774 50.0071 49.7934C50.2244 50.0095 50.3464 50.3025 50.3464 50.608C50.3464 50.9136 50.2244 51.2066 50.0071 51.4226C49.7899 51.6387 49.4952 51.7601 49.188 51.7601C48.5527 51.7601 48.0355 51.2443 48.0353 50.6084ZM9.1664 48.2017C9.1664 49.325 9.8582 50.1106 10.8524 50.1106C11.8684 50.1106 12.5521 49.3426 12.5521 48.2017C12.5521 47.0793 11.8531 46.2945 10.8532 46.2945C9.85818 46.2945 9.1664 47.0793 9.1664 48.2017ZM7.22054 48.2017C7.22054 46.1249 8.74812 44.6169 10.8524 44.6169H10.8532C12.9656 44.6169 14.4988 46.1249 14.4988 48.2025C14.4988 50.2794 12.9656 51.7866 10.8524 51.7866C8.74892 51.7866 7.22054 50.2794 7.22054 48.2017ZM27.2977 47.9953C27.407 48.1108 27.4996 48.2409 27.5728 48.3817H27.5736L28.3298 49.8058L29.4704 51.681H27.9396C27.362 51.681 27.0556 51.5858 26.7475 51.0242L25.6454 48.9554C25.5738 48.8321 25.4194 48.8058 25.1918 48.8058H25.0043V51.681H23.0062L23.0038 42.096H23.945C24.4944 42.096 25.0035 42.2064 25.0035 43.0184V47.0793H25.3213C25.5602 47.0793 25.7194 47.0217 25.7983 46.9065L27.194 44.7585H29.4495L27.5913 47.5041C27.4964 47.6433 27.3975 47.7633 27.3009 47.8649L27.2333 47.9289L27.2977 47.9953ZM35.2436 45.4305C35.6072 45.0505 36.2556 44.6009 37.2724 44.6009V44.6017C38.8965 44.6017 39.7548 45.5265 39.7548 47.2753L39.7579 51.6786H38.8136C38.092 51.6786 37.7582 51.3434 37.7582 50.6266V47.6113C37.7582 46.7713 37.5161 46.4457 36.8967 46.4457C36.1269 46.4457 35.5107 46.9105 35.2903 47.6585C35.2066 47.9057 35.1664 48.1761 35.1664 48.4881V51.6786H33.1819L33.1763 44.7561H34.0716C34.613 44.7561 34.9734 44.9793 35.0795 45.3865L35.123 45.5521L35.2436 45.4305ZM30.0488 44.7585H30.9891L30.9899 44.7593C31.6938 44.7593 32.034 45.1025 32.034 45.8105L32.03 51.6786H32.0268V51.681H31.5619L31.0937 51.6826L31.0583 51.681H30.0552V50.1114L30.0488 44.7585ZM16.9595 48.2017C16.9595 49.325 17.6521 50.1106 18.6463 50.1106H18.6471C19.6623 50.1106 20.3461 49.3426 20.3461 48.2017C20.3461 47.0793 19.6446 46.2945 18.6471 46.2945C17.6521 46.2945 16.9595 47.0793 16.9595 48.2017ZM15.012 48.2017C15.012 46.1249 16.5404 44.6169 18.6463 44.6169H18.6471C20.7571 44.6169 22.2935 46.1249 22.2935 48.2025C22.2935 50.2794 20.7571 51.7866 18.6471 51.7866C16.5404 51.7866 15.012 50.2794 15.012 48.2017ZM61.1795 50.1106C60.1852 50.1106 59.4918 49.325 59.4918 48.2017C59.4918 47.0793 60.1852 46.2945 61.1795 46.2945C62.1786 46.2945 62.8792 47.0793 62.8792 48.2017C62.8792 49.3426 62.1954 50.1106 61.1795 50.1106ZM61.1795 44.6169C59.0735 44.6169 57.546 46.1249 57.546 48.2017C57.546 50.2794 59.0735 51.7866 61.1795 51.7866C63.2902 51.7866 64.8259 50.2794 64.8259 48.2025C64.8259 46.1249 63.2894 44.6169 61.1795 44.6169ZM42.4671 47.9827C42.4671 48.8651 42.8532 49.8059 43.9383 49.8059C44.5609 49.8059 45.3034 49.5011 45.3034 48.0475C45.3034 46.5067 44.4644 46.3274 43.8345 46.3274C42.566 46.3274 42.4671 47.5939 42.4671 47.9827ZM45.5222 45.1626C45.6678 44.8898 45.9573 44.7402 46.3338 44.7402H47.2565L47.2492 51.09C47.2492 53.5108 45.2752 54.3708 43.586 54.3708C42.7655 54.3708 41.8573 54.1508 41.1591 53.7828L41.0215 53.71L41.2444 53.1436L41.402 52.7564C41.5717 52.3364 41.8195 52.2316 42.2394 52.358C42.5628 52.4748 43.0446 52.6028 43.5747 52.6028C44.6647 52.6028 45.2656 52.0924 45.2656 51.1676V50.9756L45.1127 51.09C44.7169 51.3876 44.2175 51.5348 43.586 51.5348C41.7367 51.5348 40.444 50.0947 40.444 48.0339C40.444 45.9722 41.6932 44.5858 43.549 44.5858C44.4813 44.5858 45.0556 44.913 45.3758 45.1882L45.4675 45.2682L45.5222 45.1626ZM3.46296 50.0312L1.84772 50.0296V48.1096C1.84772 47.6984 2.0078 47.4856 2.36093 47.436H3.46296C4.24887 47.436 4.75724 47.9288 4.75804 48.7264C4.75724 49.5456 4.26174 50.0304 3.46296 50.0304V50.0312ZM1.84772 44.8503V44.3447C1.84772 43.9023 2.03596 43.6919 2.44862 43.6647H3.27556C3.98424 43.6647 4.40896 44.0863 4.40896 44.7927C4.40896 45.3303 4.11776 45.9583 3.30129 45.9583H1.84772V44.8503ZM5.52548 46.7672L5.23345 46.604L5.48846 46.3871C5.78529 46.1335 6.28162 45.5631 6.28162 44.5791C6.28162 43.0719 5.10718 42.0991 3.28842 42.0991H0.97654C0.716406 42.1085 0.469907 42.2171 0.288101 42.4024C0.106296 42.5877 0.00313265 42.8354 0 43.0943V51.6465H3.32942C5.35089 51.6465 6.65564 50.552 6.65564 48.8568C6.65564 47.944 6.23416 47.164 5.52548 46.7672ZM72.5074 44.8962C72.8761 44.7186 73.2802 44.6256 73.6899 44.6241C75.2215 44.6241 76.0001 45.5161 76.0001 47.2753L75.9985 51.6778H75.1073C74.4066 51.6778 74.0945 51.3658 74.0945 50.6698V47.5897C74.0945 46.7065 73.8789 46.3785 73.2949 46.3785C72.4889 46.3785 71.9693 47.0985 71.8164 47.8009C71.7408 48.0505 71.7094 48.3001 71.7094 48.6338V51.6778H69.8014V47.5897C69.8014 46.8249 69.5488 46.4289 69.034 46.3793C68.1982 46.3001 67.7011 47.0913 67.5201 47.8273C67.4533 48.1033 67.4195 48.3665 67.4195 48.6338V51.6778H65.5251L65.5332 44.7817H66.3674C66.887 44.7817 67.2305 44.9921 67.335 45.3761L67.4075 45.6425L67.5957 45.4401C67.8829 45.1361 68.5015 44.6241 69.4241 44.6241C70.3033 44.6241 70.9356 44.9625 71.304 45.6289L71.4166 45.8313L71.5598 45.6505C71.8149 45.3317 72.1387 45.0739 72.5074 44.8962ZM54.5538 50.145C55.6277 50.145 56.4426 49.2906 56.4482 49.2834L56.5568 49.169L57.3789 50.525L57.3242 50.5922C57.3146 50.6042 56.2914 51.8338 54.4107 51.8338C52.242 51.8338 50.6702 50.3186 50.6702 48.2305C50.6702 46.1409 52.2597 44.6241 54.4509 44.6241C55.4749 44.6241 56.9976 45.0561 56.9976 46.2465V47.1489L55.9599 47.1473C55.8066 47.1482 55.6573 47.0987 55.5351 47.0066C55.413 46.9144 55.3248 46.7848 55.2843 46.6377L55.2754 46.6017C55.2119 46.3881 54.8064 46.2617 54.4509 46.2617C53.3537 46.2617 52.5879 47.0657 52.5879 48.2161C52.5879 49.5482 53.5757 50.145 54.5538 50.145Z" fill="white"/>
<path d="M30.44 73.16C29.4053 73.16 28.5307 73.0053 27.816 72.696C27.1013 72.376 26.568 71.9493 26.216 71.416C25.8747 70.8827 25.704 70.2853 25.704 69.624C25.704 69.0693 25.8427 68.568 26.12 68.12C26.408 67.6613 26.7813 67.3093 27.24 67.064C26.4827 66.5733 26.104 65.8373 26.104 64.856C26.104 63.9067 26.4667 63.1333 27.192 62.536C27.928 61.9387 29.0107 61.64 30.44 61.64C31.8587 61.64 32.9253 61.9387 33.64 62.536C34.3653 63.1227 34.728 63.8907 34.728 64.84C34.728 65.8107 34.3653 66.552 33.64 67.064C34.1093 67.288 34.4827 67.6293 34.76 68.088C35.048 68.5467 35.192 69.064 35.192 69.64C35.192 70.3013 35.016 70.8987 34.664 71.432C34.312 71.9547 33.7787 72.376 33.064 72.696C32.3493 73.0053 31.4747 73.16 30.44 73.16ZM30.44 66.232C30.888 66.2213 31.256 66.104 31.544 65.88C31.832 65.6453 31.976 65.352 31.976 65C31.976 64.6373 31.832 64.344 31.544 64.12C31.256 63.8853 30.888 63.768 30.44 63.768C29.9813 63.768 29.608 63.8853 29.32 64.12C29.0427 64.344 28.904 64.6373 28.904 65C28.904 65.3627 29.0427 65.6613 29.32 65.896C29.608 66.12 29.9813 66.232 30.44 66.232ZM30.44 71.048C30.9413 71.048 31.352 70.92 31.672 70.664C32.0027 70.408 32.168 70.0667 32.168 69.64C32.168 69.2133 32.0027 68.872 31.672 68.616C31.352 68.36 30.9413 68.232 30.44 68.232C29.9387 68.232 29.5227 68.36 29.192 68.616C28.8613 68.872 28.696 69.2133 28.696 69.64C28.696 70.0667 28.8613 70.408 29.192 70.664C29.5227 70.92 29.9387 71.048 30.44 71.048ZM37.0761 73C36.9588 73 36.8575 72.9627 36.7721 72.888C36.6975 72.8133 36.6601 72.7173 36.6601 72.6V70.488C36.6601 70.3707 36.6975 70.2747 36.7721 70.2C36.8575 70.1147 36.9588 70.072 37.0761 70.072H39.1881C39.3055 70.072 39.4015 70.1147 39.4761 70.2C39.5508 70.2747 39.5881 70.3707 39.5881 70.488V72.6C39.5881 72.7067 39.5508 72.8027 39.4761 72.888C39.4015 72.9627 39.3055 73 39.1881 73H37.0761ZM45.5899 73.176C44.6192 73.176 43.7819 73.0213 43.0779 72.712C42.3845 72.4027 41.8565 71.992 41.4939 71.48C41.1419 70.968 40.9552 70.408 40.9339 69.8C40.9339 69.704 40.9659 69.624 41.0299 69.56C41.0939 69.496 41.1739 69.464 41.2699 69.464H43.5259C43.7819 69.464 43.9579 69.5653 44.0539 69.768C44.2032 70.12 44.4005 70.376 44.6459 70.536C44.9019 70.696 45.2165 70.776 45.5899 70.776C46.0485 70.776 46.4272 70.6373 46.7259 70.36C47.0352 70.0827 47.1899 69.6933 47.1899 69.192C47.1899 68.7547 47.0405 68.392 46.7419 68.104C46.4432 67.816 46.0592 67.672 45.5899 67.672C45.3232 67.672 45.1099 67.7093 44.9499 67.784C44.7899 67.848 44.6352 67.9387 44.4859 68.056C44.3259 68.184 44.1872 68.248 44.0699 68.248H41.8459C41.7499 68.248 41.6645 68.216 41.5899 68.152C41.5259 68.0773 41.4939 67.992 41.4939 67.896L42.0859 62.28C42.0965 62.1307 42.1499 62.0133 42.2459 61.928C42.3525 61.8427 42.4752 61.8 42.6139 61.8H49.1259C49.2432 61.8 49.3392 61.8373 49.4139 61.912C49.4885 61.9867 49.5259 62.0827 49.5259 62.2V63.8C49.5259 63.9067 49.4885 64.0027 49.4139 64.088C49.3392 64.1627 49.2432 64.2 49.1259 64.2H44.4699L44.2779 66.168C44.5339 65.9867 44.8219 65.8533 45.1419 65.768C45.4619 65.672 45.8779 65.624 46.3899 65.624C47.0725 65.624 47.7125 65.7787 48.3099 66.088C48.9072 66.3867 49.3819 66.8133 49.7339 67.368C50.0965 67.9227 50.2779 68.5573 50.2779 69.272C50.2779 70.0187 50.0912 70.6907 49.7179 71.288C49.3445 71.8747 48.8005 72.3387 48.0859 72.68C47.3819 73.0107 46.5499 73.176 45.5899 73.176Z" fill="white"/>
</svg>
