<svg width="18" height="18" viewBox="0 0 18 18" fill="none" xmlns="http://www.w3.org/2000/svg">
<path fill-rule="evenodd" clip-rule="evenodd" d="M6.90343 11.1295C8.51791 12.7355 10.3866 14.2697 11.1203 13.5289C12.1707 12.4685 12.8173 11.546 15.1483 13.4089C17.4793 15.2727 15.6991 16.527 14.6817 17.5546C13.5076 18.74 9.11027 17.6376 4.75156 13.3028C0.393115 8.96706 -0.740495 4.56896 0.434413 3.38295C1.45211 2.3554 2.69044 0.562508 4.56655 2.88485C6.44356 5.20601 5.52789 5.86105 4.47744 6.92173C3.74414 7.66224 5.28869 9.52312 6.90343 11.1295ZM9.24449 3.46751C9.24449 3.46751 8.75746 3.39125 8.41645 3.73325C8.06541 4.08503 8.0501 4.69103 8.42 5.06142C8.6386 5.28048 8.94685 5.32717 8.94685 5.32717C9.54776 5.44011 10.4534 5.63134 11.4171 6.59682C12.3805 7.56225 12.5714 8.46978 12.6841 9.07227C12.6841 9.07227 12.7306 9.38118 12.9492 9.60024C13.3189 9.97067 13.9236 9.95558 14.2746 9.6038C14.6156 9.26211 14.5398 8.77405 14.5398 8.77405C14.3489 7.55434 13.759 6.28025 12.746 5.26513C11.7327 4.25001 10.4613 3.65904 9.24449 3.46751ZM13.8129 4.19588C15.5793 5.96604 16.3324 7.97502 16.0872 9.60293C16.0872 9.60293 16.0017 10.1185 16.3377 10.4552C16.7158 10.8342 17.3152 10.8123 17.6692 10.4579C17.8967 10.2299 17.9462 9.85894 17.9462 9.85894C18.1489 8.45213 17.894 5.62195 15.1418 2.8642C12.3896 0.106396 9.56572 -0.149004 8.16185 0.0537947C8.16185 0.0537947 7.79194 0.103179 7.5642 0.331366C7.21022 0.6861 7.1887 1.2868 7.56685 1.66575C7.90287 2.00249 8.41727 1.91672 8.41727 1.91672C10.0418 1.67105 12.0465 2.42578 13.8129 4.19588Z" fill="#FCDB9D"/>
</svg>
