<svg width="24" height="24" viewBox="0 0 24 24" fill="none" xmlns="http://www.w3.org/2000/svg">
<path d="M3.51512 12.2779C3.42787 12.1785 3.34818 12.0855 3.27635 12C3.34818 11.9145 3.42787 11.8215 3.51512 11.7221C3.98394 11.1878 4.66496 10.476 5.51163 9.76642C7.22895 8.32714 9.50391 7 12 7C14.4961 7 16.7711 8.32714 18.4884 9.76642C19.335 10.476 20.0161 11.1878 20.4849 11.7221C20.5721 11.8215 20.6518 11.9145 20.7236 12C20.6518 12.0855 20.5721 12.1785 20.4849 12.2779C20.0161 12.8122 19.335 13.524 18.4884 14.2336C16.7711 15.6729 14.4961 17 12 17C9.50391 17 7.22895 15.6729 5.51163 14.2336C4.66496 13.524 3.98394 12.8122 3.51512 12.2779Z" stroke="#C7A462" stroke-width="2"/>
<circle cx="12" cy="12" r="2" fill="#C7A462"/>
</svg>
