<svg width="17" height="19" viewBox="0 0 17 19" fill="none" xmlns="http://www.w3.org/2000/svg">
<rect x="2.42822" width="2.42857" height="2.42857" fill="#C7A462"/>
<rect x="12.144" width="2.42857" height="2.42857" fill="#C7A462"/>
<path fill-rule="evenodd" clip-rule="evenodd" d="M15 4H2V17L15 17L15 4ZM2 2C0.895431 2 0 2.89543 0 4V17C0 18.1046 0.895431 19 2 19H15C16.1046 19 17 18.1046 17 17V4C17 2.89543 16.1046 2 15 2H2Z" fill="#C7A462"/>
<circle cx="5.3125" cy="7.0625" r="1.0625" fill="#C7A462"/>
<circle cx="8.5" cy="7.0625" r="1.0625" fill="#C7A462"/>
<circle cx="11.6875" cy="7.0625" r="1.0625" fill="#C7A462"/>
<circle cx="5.3125" cy="10.25" r="1.0625" fill="#C7A462"/>
<circle cx="5.3125" cy="13.4375" r="1.0625" fill="#C7A462"/>
<circle cx="8.5" cy="10.25" r="1.0625" fill="#C7A462"/>
<circle cx="11.6875" cy="10.25" r="1.0625" fill="#C7A462"/>
</svg>
