<svg width="20" height="20" viewBox="0 0 20 20" fill="none" xmlns="http://www.w3.org/2000/svg">
<path d="M19.0781 5.22495C19.0377 5.22501 18.9978 5.23263 18.9601 5.24744V2.80982C18.9603 2.69284 18.9475 2.57622 18.9221 2.46217C18.9236 2.43765 18.9236 2.41306 18.9221 2.38855C18.9281 1.07157 14.9185 0 9.971 0C5.0235 0 1.0139 1.07157 1.0139 2.39059C1.01237 2.41511 1.01237 2.4397 1.0139 2.46421C0.98848 2.57826 0.975734 2.69489 0.975902 2.81186V5.23108C0.955287 5.22903 0.934524 5.22903 0.913909 5.23108C0.411959 5.22495 0 6.47239 0 8.01432C0 9.55624 0.411959 10.8037 0.919908 10.8037C0.940524 10.8057 0.961286 10.8057 0.981902 10.8037V16.411C0.982958 16.8305 1.14637 17.2325 1.43642 17.5291C1.72647 17.8257 2.11956 17.9928 2.52975 17.9939H2.79972C2.79972 18.0061 2.79972 18.0184 2.79972 18.0307V18.9632C2.79969 19.2357 2.90459 19.4973 3.09172 19.6913C3.27884 19.8853 3.53315 19.9962 3.79962 20H4.76152C5.02973 19.9995 5.28681 19.8903 5.47646 19.6963C5.66611 19.5024 5.77289 19.2395 5.77342 18.9652V18.0307C5.77342 18.0184 5.77342 18.0061 5.77342 17.9939H14.1666C14.1666 18.0061 14.1666 18.0184 14.1666 18.0307V18.9632C14.1671 19.2375 14.2739 19.5003 14.4635 19.6943C14.6532 19.8882 14.9103 19.9974 15.1785 19.998H16.1384C16.4066 19.9974 16.6637 19.8882 16.8533 19.6943C17.043 19.5003 17.1498 19.2375 17.1503 18.9632V18.0307C17.1503 18.0184 17.1503 18.0061 17.1503 17.9939H17.4143C17.8244 17.9928 18.2175 17.8257 18.5076 17.5291C18.7976 17.2325 18.961 16.8305 18.9621 16.411V10.7812C18.9998 10.796 19.0397 10.8036 19.0801 10.8037C19.588 10.8037 20 9.55419 20 8.01432C20 6.47444 19.586 5.22495 19.0781 5.22495ZM6.54934 1.22699H13.3987C13.5493 1.22699 13.6937 1.28818 13.8003 1.3971C13.9068 1.50602 13.9666 1.65374 13.9666 1.80777C13.9666 1.9618 13.9068 2.10953 13.8003 2.21844C13.6937 2.32736 13.5493 2.38855 13.3987 2.38855H6.54934C6.39872 2.38855 6.25426 2.32736 6.14775 2.21844C6.04124 2.10953 5.9814 1.9618 5.9814 1.80777C5.9814 1.65374 6.04124 1.50602 6.14775 1.3971C6.25426 1.28818 6.39872 1.22699 6.54934 1.22699ZM4.27357 16.3845C4.05643 16.3845 3.84416 16.3186 3.66362 16.1952C3.48307 16.0719 3.34235 15.8965 3.25925 15.6914C3.17616 15.4863 3.15442 15.2605 3.19678 15.0427C3.23914 14.8249 3.3437 14.6249 3.49725 14.4679C3.65079 14.3109 3.84641 14.204 4.05938 14.1606C4.27235 14.1173 4.4931 14.1395 4.69372 14.2245C4.89433 14.3095 5.0658 14.4534 5.18643 14.638C5.30707 14.8226 5.37146 15.0397 5.37146 15.2618C5.37146 15.5595 5.25579 15.8451 5.0499 16.0556C4.844 16.2662 4.56475 16.3845 4.27357 16.3845ZM9.51705 3.45603V12.7382H3.78762C3.47873 12.7372 3.1828 12.6112 2.96438 12.3879C2.74596 12.1645 2.62279 11.8619 2.62174 11.546V4.55828C2.62279 4.24241 2.74596 3.93979 2.96438 3.71644C3.1828 3.49309 3.47873 3.36713 3.78762 3.36605H9.52705C9.52083 3.39564 9.51748 3.42578 9.51705 3.45603ZM15.6704 16.3845C15.4533 16.3845 15.241 16.3186 15.0605 16.1952C14.8799 16.0719 14.7392 15.8965 14.6561 15.6914C14.573 15.4863 14.5513 15.2605 14.5936 15.0427C14.636 14.8249 14.7406 14.6249 14.8941 14.4679C15.0476 14.3109 15.2433 14.204 15.4562 14.1606C15.6692 14.1173 15.89 14.1395 16.0906 14.2245C16.2912 14.3095 16.4627 14.4534 16.5833 14.638C16.7039 14.8226 16.7683 15.0397 16.7683 15.2618C16.7683 15.5595 16.6527 15.8451 16.4468 16.0556C16.2409 16.2662 15.9616 16.3845 15.6704 16.3845ZM17.3223 11.546C17.3212 11.8619 17.198 12.1645 16.9796 12.3879C16.7612 12.6112 16.4653 12.7372 16.1564 12.7382H10.425V3.45603C10.4281 3.42476 10.4281 3.39324 10.425 3.36196H16.1564C16.4653 3.36304 16.7612 3.489 16.9796 3.71235C17.198 3.9357 17.3212 4.23833 17.3223 4.55419V11.546Z" fill="#C7A462"/>
</svg>
