<svg width="220" height="78" viewBox="0 0 220 78" fill="none" xmlns="http://www.w3.org/2000/svg">
<g clip-path="url(#clip0_357_156)">
<mask id="mask0_357_156" style="mask-type:luminance" maskUnits="userSpaceOnUse" x="0" y="0" width="220" height="78">
<path d="M0 0H220V78H0V0Z" fill="white"/>
</mask>
<g mask="url(#mask0_357_156)">
<path fill-rule="evenodd" clip-rule="evenodd" d="M39.505 0L41.0768 3.54973L44.9006 3.94937L42.0386 6.53526L42.8362 10.3201L39.505 8.39241L36.1503 10.3201L36.948 6.53526L34.0859 3.94937L37.9332 3.54973L39.505 0Z" fill="#C7A462"/>
<path fill-rule="evenodd" clip-rule="evenodd" d="M39.505 67.6802L41.0768 71.2299L44.9006 71.6295L42.0386 74.2154L42.8362 78.0238L39.505 76.0726L36.1503 78.0238L36.948 74.2154L34.0859 71.6295L37.9332 71.2299L39.505 67.6802Z" fill="#C7A462"/>
<path fill-rule="evenodd" clip-rule="evenodd" d="M5.41907 35.1211L6.99083 38.6708L10.8381 39.0705L7.95265 41.6564L8.77373 45.4647L5.41907 43.5135L2.06441 45.4647L2.88548 41.6564L0 39.0705L3.8473 38.6708L5.41907 35.1211Z" fill="#C7A462"/>
<path fill-rule="evenodd" clip-rule="evenodd" d="M10.9542 18.5713L12.526 22.121L16.3733 22.5207L13.5112 25.1066L14.3089 28.8914L10.9542 26.9637L7.62303 28.8914L8.42064 25.1066L5.53516 22.5207L9.38247 22.121L10.9542 18.5713Z" fill="#C7A462"/>
<path fill-rule="evenodd" clip-rule="evenodd" d="M22.0519 5.80664L23.6236 9.33286L27.4709 9.7325L24.5855 12.3419L25.3831 16.1267L22.0519 14.1755L18.6972 16.1267L19.4948 12.3419L16.6328 9.7325L20.4801 9.33286L22.0519 5.80664Z" fill="#C7A462"/>
<path fill-rule="evenodd" clip-rule="evenodd" d="M68.6183 16.7612L67.0465 20.2875L63.1992 20.6871L66.0612 23.2965L65.2636 27.0813L68.6183 25.1301L71.9495 27.0813L71.1519 23.2965L74.0139 20.6871L70.1666 20.2875L68.6183 16.7612Z" fill="#C7A462"/>
<path fill-rule="evenodd" clip-rule="evenodd" d="M57.5207 5.80664L55.9489 9.33286L52.1016 9.7325L54.9871 12.3419L54.166 16.1267L57.5207 14.1755L60.8754 16.1267L60.0778 12.3419L62.9398 9.7325L59.0925 9.33286L57.5207 5.80664Z" fill="#C7A462"/>
<path fill-rule="evenodd" clip-rule="evenodd" d="M10.9542 50.9189L12.526 54.4687L16.3733 54.8683L13.5112 57.4542L14.3089 61.239L10.9542 59.3113L7.62303 61.239L8.42064 57.4542L5.53516 54.8683L9.38247 54.4687L10.9542 50.9189Z" fill="#C7A462"/>
<path fill-rule="evenodd" clip-rule="evenodd" d="M22.0519 64.271L23.6236 67.7972L27.4709 68.2204L24.5855 70.8063L25.3831 74.5911L22.0519 72.6634L18.6972 74.5911L19.4948 70.8063L16.6328 68.2204L20.4801 67.7972L22.0519 64.271Z" fill="#C7A462"/>
<path fill-rule="evenodd" clip-rule="evenodd" d="M68.6183 50.9189L67.0465 54.4687L63.1992 54.8683L66.0612 57.4542L65.2636 61.239L68.6183 59.3113L71.9495 61.239L71.1519 57.4542L74.0139 54.8683L70.1666 54.4687L68.6183 50.9189Z" fill="#C7A462"/>
<path fill-rule="evenodd" clip-rule="evenodd" d="M57.5207 64.271L55.9489 67.7972L52.1016 68.2204L54.9871 70.8063L54.166 74.5911L57.5207 72.6634L60.8754 74.5911L60.0778 70.8063L62.9398 68.2204L59.0925 67.7972L57.5207 64.271Z" fill="#C7A462"/>
<path d="M48.2605 36.4031H43.128C43.0342 35.7391 42.8428 35.1493 42.5538 34.6337C42.2647 34.1103 41.8937 33.665 41.4406 33.2978C40.9875 32.9307 40.4641 32.6494 39.8703 32.4541C39.2844 32.2588 38.6477 32.1612 37.9603 32.1612C36.7182 32.1612 35.6362 32.4697 34.7144 33.0869C33.7925 33.6962 33.0777 34.5868 32.5699 35.7586C32.0621 36.9226 31.8082 38.3366 31.8082 40.0006C31.8082 41.7115 32.0621 43.1489 32.5699 44.3129C33.0855 45.4769 33.8042 46.3558 34.7261 46.9495C35.6479 47.5432 36.7142 47.8401 37.9251 47.8401C38.6048 47.8401 39.2337 47.7502 39.8117 47.5705C40.3977 47.3909 40.9172 47.1292 41.3703 46.7854C41.8234 46.4339 42.1983 46.0081 42.4952 45.5081C42.7999 45.0082 43.0108 44.4379 43.128 43.7973L48.2605 43.8207C48.1277 44.9222 47.7957 45.9847 47.2645 47.0081C46.7411 48.0236 46.0341 48.9337 45.1435 49.7384C44.2607 50.5352 43.2061 51.168 41.9796 51.6367C40.7609 52.0977 39.3821 52.3281 37.8431 52.3281C35.7026 52.3281 33.7886 51.8438 32.1012 50.8751C30.4216 49.9064 29.0935 48.5041 28.117 46.6682C27.1483 44.8324 26.664 42.6099 26.664 40.0006C26.664 37.3836 27.1561 35.1571 28.1405 33.3213C29.1248 31.4854 30.4607 30.087 32.1481 29.1262C33.8355 28.1575 35.7338 27.6731 37.8431 27.6731C39.2337 27.6731 40.5227 27.8684 41.7101 28.259C42.9053 28.6496 43.9639 29.2199 44.8857 29.9699C45.8075 30.712 46.5575 31.6221 47.1356 32.7002C47.7215 33.7783 48.0965 35.0126 48.2605 36.4031ZM73.9526 40.0006C73.9526 42.6177 73.4565 44.8441 72.4644 46.68C71.4801 48.5158 70.1364 49.9181 68.4333 50.8868C66.7381 51.8477 64.832 52.3281 62.7149 52.3281C60.5822 52.3281 58.6682 51.8438 56.973 50.8751C55.2778 49.9064 53.938 48.5041 52.9537 46.6682C51.9693 44.8324 51.4772 42.6099 51.4772 40.0006C51.4772 37.3836 51.9693 35.1571 52.9537 33.3213C53.938 31.4854 55.2778 30.087 56.973 29.1262C58.6682 28.1575 60.5822 27.6731 62.7149 27.6731C64.832 27.6731 66.7381 28.1575 68.4333 29.1262C70.1364 30.087 71.4801 31.4854 72.4644 33.3213C73.4565 35.1571 73.9526 37.3836 73.9526 40.0006ZM68.8083 40.0006C68.8083 38.3054 68.5544 36.8758 68.0466 35.7118C67.5467 34.5478 66.8397 33.665 65.9257 33.0635C65.0116 32.4619 63.9414 32.1612 62.7149 32.1612C61.4884 32.1612 60.4181 32.4619 59.5041 33.0635C58.5901 33.665 57.8792 34.5478 57.3714 35.7118C56.8714 36.8758 56.6214 38.3054 56.6214 40.0006C56.6214 41.6958 56.8714 43.1254 57.3714 44.2895C57.8792 45.4535 58.5901 46.3362 59.5041 46.9378C60.4181 47.5393 61.4884 47.8401 62.7149 47.8401C63.9414 47.8401 65.0116 47.5393 65.9257 46.9378C66.8397 46.3362 67.5467 45.4535 68.0466 44.2895C68.5544 43.1254 68.8083 41.6958 68.8083 40.0006ZM97.7844 28.0012V52H93.4018L82.9609 36.8953H82.7852V52H77.7112V28.0012H82.1641L92.5229 43.0942H92.7339V28.0012H97.7844ZM101.063 32.1846V28.0012H120.772V32.1846H113.425V52H108.41V32.1846H101.063ZM129.092 28.0012V52H124.018V28.0012H129.092ZM153.34 28.0012V52H148.958L138.517 36.8953H138.341V52H133.267V28.0012H137.72L148.079 43.0942H148.29V28.0012H153.34ZM157.532 52V28.0012H173.703V32.1846H162.606V37.9031H172.871V42.0864H162.606V47.8166H173.75V52H157.532ZM197.811 28.0012V52H193.428L182.987 36.8953H182.811V52H177.737V28.0012H182.19L192.549 43.0942H192.76V28.0012H197.811ZM201.089 32.1846V28.0012H220.799V32.1846H213.451V52H208.436V32.1846H201.089Z" fill="black"/>
<path d="M88.6953 16V8H91.8984C92.487 8 92.9779 8.08724 93.3711 8.26172C93.7643 8.4362 94.0599 8.67839 94.2578 8.98828C94.4557 9.29557 94.5547 9.64974 94.5547 10.0508C94.5547 10.3633 94.4922 10.638 94.3672 10.875C94.2422 11.1094 94.0703 11.3021 93.8516 11.4531C93.6354 11.6016 93.388 11.707 93.1094 11.7695V11.8477C93.4141 11.8607 93.6992 11.9466 93.9648 12.1055C94.2331 12.2643 94.4505 12.487 94.6172 12.7734C94.7839 13.0573 94.8672 13.3958 94.8672 13.7891C94.8672 14.2135 94.7617 14.5924 94.5508 14.9258C94.3424 15.2565 94.0339 15.5182 93.625 15.7109C93.2161 15.9036 92.7122 16 92.1133 16H88.6953ZM90.3867 14.6172H91.7656C92.237 14.6172 92.5807 14.5273 92.7969 14.3477C93.013 14.1654 93.1211 13.9232 93.1211 13.6211C93.1211 13.3997 93.0677 13.2044 92.9609 13.0352C92.8542 12.8659 92.7018 12.7331 92.5039 12.6367C92.3086 12.5404 92.0755 12.4922 91.8047 12.4922H90.3867V14.6172ZM90.3867 11.3477H91.6406C91.8724 11.3477 92.0781 11.3073 92.2578 11.2266C92.4401 11.1432 92.5833 11.026 92.6875 10.875C92.7943 10.724 92.8477 10.543 92.8477 10.332C92.8477 10.043 92.7448 9.8099 92.5391 9.63281C92.3359 9.45573 92.0469 9.36719 91.6719 9.36719H90.3867V11.3477ZM100.909 8H102.601V13.1953C102.601 13.7786 102.461 14.2891 102.183 14.7266C101.907 15.1641 101.52 15.5052 101.022 15.75C100.525 15.9922 99.9456 16.1133 99.2842 16.1133C98.6201 16.1133 98.0394 15.9922 97.542 15.75C97.0446 15.5052 96.6579 15.1641 96.3818 14.7266C96.1058 14.2891 95.9678 13.7786 95.9678 13.1953V8H97.6592V13.0508C97.6592 13.3555 97.7256 13.6263 97.8584 13.8633C97.9938 14.1003 98.1839 14.2865 98.4287 14.4219C98.6735 14.5573 98.9587 14.625 99.2842 14.625C99.6123 14.625 99.8975 14.5573 100.14 14.4219C100.384 14.2865 100.573 14.1003 100.706 13.8633C100.841 13.6263 100.909 13.3555 100.909 13.0508V8ZM108.332 10.3008C108.301 9.98568 108.167 9.74089 107.93 9.56641C107.693 9.39193 107.371 9.30469 106.965 9.30469C106.689 9.30469 106.456 9.34375 106.266 9.42187C106.076 9.4974 105.93 9.60286 105.828 9.73828C105.729 9.8737 105.68 10.0273 105.68 10.1992C105.674 10.3424 105.704 10.4674 105.77 10.5742C105.837 10.681 105.93 10.7734 106.047 10.8516C106.164 10.9271 106.299 10.9935 106.453 11.0508C106.607 11.1055 106.771 11.1523 106.945 11.1914L107.664 11.3633C108.013 11.4414 108.333 11.5456 108.625 11.6758C108.917 11.806 109.169 11.9661 109.383 12.1562C109.596 12.3464 109.762 12.5703 109.879 12.8281C109.999 13.0859 110.06 13.3815 110.062 13.7148C110.06 14.2044 109.935 14.6289 109.688 14.9883C109.443 15.3451 109.089 15.6224 108.625 15.8203C108.164 16.0156 107.608 16.1133 106.957 16.1133C106.311 16.1133 105.749 16.0143 105.27 15.8164C104.793 15.6185 104.421 15.3255 104.152 14.9375C103.887 14.5469 103.747 14.0638 103.734 13.4883H105.371C105.389 13.7565 105.466 13.9805 105.602 14.1602C105.74 14.3372 105.923 14.4714 106.152 14.5625C106.384 14.651 106.646 14.6953 106.937 14.6953C107.224 14.6953 107.473 14.6536 107.684 14.5703C107.897 14.487 108.063 14.3711 108.18 14.2227C108.297 14.0742 108.355 13.9036 108.355 13.7109C108.355 13.5312 108.302 13.3802 108.195 13.2578C108.091 13.1354 107.938 13.0312 107.734 12.9453C107.534 12.8594 107.288 12.7812 106.996 12.7109L106.125 12.4922C105.451 12.3281 104.918 12.0716 104.527 11.7227C104.137 11.3737 103.943 10.9036 103.945 10.3125C103.943 9.82812 104.072 9.40495 104.332 9.04297C104.595 8.68099 104.956 8.39844 105.414 8.19531C105.872 7.99219 106.393 7.89062 106.977 7.89062C107.57 7.89062 108.089 7.99219 108.531 8.19531C108.977 8.39844 109.323 8.68099 109.57 9.04297C109.818 9.40495 109.945 9.82422 109.953 10.3008H108.332ZM112.892 8V16H111.2V8H112.892ZM120.975 8V16H119.514L116.033 10.9648H115.975V16H114.283V8H115.768L119.221 13.0312H119.291V8H120.975ZM122.372 16V8H127.763V9.39453H124.063V11.3008H127.485V12.6953H124.063V14.6055H127.778V16H122.372ZM133.447 10.3008C133.416 9.98568 133.282 9.74089 133.045 9.56641C132.808 9.39193 132.486 9.30469 132.08 9.30469C131.804 9.30469 131.571 9.34375 131.381 9.42187C131.191 9.4974 131.045 9.60286 130.943 9.73828C130.844 9.8737 130.795 10.0273 130.795 10.1992C130.79 10.3424 130.82 10.4674 130.885 10.5742C130.952 10.681 131.045 10.7734 131.162 10.8516C131.279 10.9271 131.415 10.9935 131.568 11.0508C131.722 11.1055 131.886 11.1523 132.061 11.1914L132.779 11.3633C133.128 11.4414 133.449 11.5456 133.74 11.6758C134.032 11.806 134.285 11.9661 134.498 12.1562C134.712 12.3464 134.877 12.5703 134.994 12.8281C135.114 13.0859 135.175 13.3815 135.178 13.7148C135.175 14.2044 135.05 14.6289 134.803 14.9883C134.558 15.3451 134.204 15.6224 133.74 15.8203C133.279 16.0156 132.723 16.1133 132.072 16.1133C131.426 16.1133 130.864 16.0143 130.385 15.8164C129.908 15.6185 129.536 15.3255 129.268 14.9375C129.002 14.5469 128.863 14.0638 128.85 13.4883H130.486C130.505 13.7565 130.581 13.9805 130.717 14.1602C130.855 14.3372 131.038 14.4714 131.268 14.5625C131.499 14.651 131.761 14.6953 132.053 14.6953C132.339 14.6953 132.588 14.6536 132.799 14.5703C133.012 14.487 133.178 14.3711 133.295 14.2227C133.412 14.0742 133.471 13.9036 133.471 13.7109C133.471 13.5312 133.417 13.3802 133.311 13.2578C133.206 13.1354 133.053 13.0312 132.85 12.9453C132.649 12.8594 132.403 12.7812 132.111 12.7109L131.24 12.4922C130.566 12.3281 130.033 12.0716 129.643 11.7227C129.252 11.3737 129.058 10.9036 129.061 10.3125C129.058 9.82812 129.187 9.40495 129.447 9.04297C129.71 8.68099 130.071 8.39844 130.529 8.19531C130.988 7.99219 131.508 7.89062 132.092 7.89062C132.686 7.89062 133.204 7.99219 133.646 8.19531C134.092 8.39844 134.438 8.68099 134.686 9.04297C134.933 9.40495 135.061 9.82422 135.068 10.3008H133.447ZM140.655 10.3008C140.624 9.98568 140.49 9.74089 140.253 9.56641C140.016 9.39193 139.694 9.30469 139.288 9.30469C139.012 9.30469 138.779 9.34375 138.589 9.42187C138.399 9.4974 138.253 9.60286 138.151 9.73828C138.052 9.8737 138.003 10.0273 138.003 10.1992C137.998 10.3424 138.028 10.4674 138.093 10.5742C138.16 10.681 138.253 10.7734 138.37 10.8516C138.487 10.9271 138.623 10.9935 138.776 11.0508C138.93 11.1055 139.094 11.1523 139.269 11.1914L139.987 11.3633C140.336 11.4414 140.657 11.5456 140.948 11.6758C141.24 11.806 141.493 11.9661 141.706 12.1562C141.92 12.3464 142.085 12.5703 142.202 12.8281C142.322 13.0859 142.383 13.3815 142.386 13.7148C142.383 14.2044 142.258 14.6289 142.011 14.9883C141.766 15.3451 141.412 15.6224 140.948 15.8203C140.487 16.0156 139.931 16.1133 139.28 16.1133C138.634 16.1133 138.072 16.0143 137.593 15.8164C137.116 15.6185 136.744 15.3255 136.476 14.9375C136.21 14.5469 136.071 14.0638 136.058 13.4883H137.694C137.713 13.7565 137.789 13.9805 137.925 14.1602C138.063 14.3372 138.246 14.4714 138.476 14.5625C138.707 14.651 138.969 14.6953 139.261 14.6953C139.547 14.6953 139.796 14.6536 140.007 14.5703C140.22 14.487 140.386 14.3711 140.503 14.2227C140.62 14.0742 140.679 13.9036 140.679 13.7109C140.679 13.5312 140.625 13.3802 140.519 13.2578C140.414 13.1354 140.261 13.0312 140.058 12.9453C139.857 12.8594 139.611 12.7812 139.319 12.7109L138.448 12.4922C137.774 12.3281 137.241 12.0716 136.851 11.7227C136.46 11.3737 136.266 10.9036 136.269 10.3125C136.266 9.82812 136.395 9.40495 136.655 9.04297C136.918 8.68099 137.279 8.39844 137.737 8.19531C138.196 7.99219 138.716 7.89062 139.3 7.89062C139.894 7.89062 140.412 7.99219 140.854 8.19531C141.3 8.39844 141.646 8.68099 141.894 9.04297C142.141 9.40495 142.269 9.82422 142.276 10.3008H140.655ZM146.069 16V8H147.761V11.3008H151.194V8H152.882V16H151.194V12.6953H147.761V16H146.069ZM161.628 12C161.628 12.8724 161.463 13.6146 161.132 14.2266C160.804 14.8385 160.356 15.306 159.788 15.6289C159.223 15.9492 158.588 16.1094 157.882 16.1094C157.171 16.1094 156.533 15.9479 155.968 15.625C155.403 15.3021 154.956 14.8346 154.628 14.2227C154.3 13.6107 154.136 12.8698 154.136 12C154.136 11.1276 154.3 10.3854 154.628 9.77344C154.956 9.16146 155.403 8.69531 155.968 8.375C156.533 8.05208 157.171 7.89062 157.882 7.89062C158.588 7.89062 159.223 8.05208 159.788 8.375C160.356 8.69531 160.804 9.16146 161.132 9.77344C161.463 10.3854 161.628 11.1276 161.628 12ZM159.913 12C159.913 11.4349 159.828 10.9583 159.659 10.5703C159.493 10.1823 159.257 9.88802 158.952 9.6875C158.647 9.48698 158.291 9.38672 157.882 9.38672C157.473 9.38672 157.116 9.48698 156.812 9.6875C156.507 9.88802 156.27 10.1823 156.101 10.5703C155.934 10.9583 155.851 11.4349 155.851 12C155.851 12.5651 155.934 13.0417 156.101 13.4297C156.27 13.8177 156.507 14.112 156.812 14.3125C157.116 14.513 157.473 14.6133 157.882 14.6133C158.291 14.6133 158.647 14.513 158.952 14.3125C159.257 14.112 159.493 13.8177 159.659 13.4297C159.828 13.0417 159.913 12.5651 159.913 12ZM162.211 9.39453V8H168.781V9.39453H166.332V16H164.66V9.39453H162.211ZM169.863 16V8H175.254V9.39453H171.555V11.3008H174.977V12.6953H171.555V14.6055H175.27V16H169.863ZM176.599 16V8H178.29V14.6055H181.72V16H176.599Z" fill="#4F4F4F"/>
</g>
</g>
<defs>
<clipPath id="clip0_357_156">
<rect width="220" height="78" fill="white"/>
</clipPath>
</defs>
</svg>
