<svg width="220" height="78" viewBox="0 0 220 78" fill="none" xmlns="http://www.w3.org/2000/svg">
<g clip-path="url(#clip0_358_210)">
<mask id="mask0_358_210" style="mask-type:luminance" maskUnits="userSpaceOnUse" x="0" y="0" width="220" height="78">
<path d="M0 0H220V78H0V0Z" fill="white"/>
</mask>
<g mask="url(#mask0_358_210)">
<path fill-rule="evenodd" clip-rule="evenodd" d="M39.505 0L41.0768 3.54973L44.9006 3.94937L42.0386 6.53526L42.8362 10.3201L39.505 8.39241L36.1503 10.3201L36.948 6.53526L34.0859 3.94937L37.9332 3.54973L39.505 0Z" fill="#FCDB9D"/>
<path fill-rule="evenodd" clip-rule="evenodd" d="M39.505 67.6802L41.0768 71.2299L44.9006 71.6295L42.0386 74.2154L42.8362 78.0238L39.505 76.0726L36.1503 78.0238L36.948 74.2154L34.0859 71.6295L37.9332 71.2299L39.505 67.6802Z" fill="#FCDB9D"/>
<path fill-rule="evenodd" clip-rule="evenodd" d="M5.41907 35.1211L6.99083 38.6708L10.8381 39.0705L7.95265 41.6564L8.77373 45.4647L5.41907 43.5135L2.06441 45.4647L2.88548 41.6564L0 39.0705L3.8473 38.6708L5.41907 35.1211Z" fill="#FCDB9D"/>
<path fill-rule="evenodd" clip-rule="evenodd" d="M10.9542 18.5713L12.526 22.121L16.3733 22.5207L13.5112 25.1066L14.3089 28.8914L10.9542 26.9637L7.62303 28.8914L8.42064 25.1066L5.53516 22.5207L9.38247 22.121L10.9542 18.5713Z" fill="#FCDB9D"/>
<path fill-rule="evenodd" clip-rule="evenodd" d="M22.0519 5.80664L23.6236 9.33286L27.4709 9.7325L24.5855 12.3419L25.3831 16.1267L22.0519 14.1755L18.6972 16.1267L19.4948 12.3419L16.6328 9.7325L20.4801 9.33286L22.0519 5.80664Z" fill="#FCDB9D"/>
<path fill-rule="evenodd" clip-rule="evenodd" d="M68.6183 16.7612L67.0465 20.2875L63.1992 20.6871L66.0612 23.2965L65.2636 27.0813L68.6183 25.1301L71.9495 27.0813L71.1519 23.2965L74.0139 20.6871L70.1666 20.2875L68.6183 16.7612Z" fill="#FCDB9D"/>
<path fill-rule="evenodd" clip-rule="evenodd" d="M57.5207 5.80664L55.9489 9.33286L52.1016 9.7325L54.9871 12.3419L54.166 16.1267L57.5207 14.1755L60.8754 16.1267L60.0778 12.3419L62.9398 9.7325L59.0925 9.33286L57.5207 5.80664Z" fill="#FCDB9D"/>
<path fill-rule="evenodd" clip-rule="evenodd" d="M10.9542 50.9189L12.526 54.4687L16.3733 54.8683L13.5112 57.4542L14.3089 61.239L10.9542 59.3113L7.62303 61.239L8.42064 57.4542L5.53516 54.8683L9.38247 54.4687L10.9542 50.9189Z" fill="#FCDB9D"/>
<path fill-rule="evenodd" clip-rule="evenodd" d="M22.0519 64.271L23.6236 67.7972L27.4709 68.2204L24.5855 70.8063L25.3831 74.5911L22.0519 72.6634L18.6972 74.5911L19.4948 70.8063L16.6328 68.2204L20.4801 67.7972L22.0519 64.271Z" fill="#FCDB9D"/>
<path fill-rule="evenodd" clip-rule="evenodd" d="M68.6183 50.9189L67.0465 54.4687L63.1992 54.8683L66.0612 57.4542L65.2636 61.239L68.6183 59.3113L71.9495 61.239L71.1519 57.4542L74.0139 54.8683L70.1666 54.4687L68.6183 50.9189Z" fill="#FCDB9D"/>
<path fill-rule="evenodd" clip-rule="evenodd" d="M57.5207 64.271L55.9489 67.7972L52.1016 68.2204L54.9871 70.8063L54.166 74.5911L57.5207 72.6634L60.8754 74.5911L60.0778 70.8063L62.9398 68.2204L59.0925 67.7972L57.5207 64.271Z" fill="#FCDB9D"/>
<path d="M48.2605 36.4031H43.128C43.0342 35.7391 42.8428 35.1493 42.5538 34.6337C42.2647 34.1103 41.8937 33.665 41.4406 33.2978C40.9875 32.9307 40.4641 32.6494 39.8703 32.4541C39.2844 32.2588 38.6477 32.1612 37.9603 32.1612C36.7182 32.1612 35.6362 32.4697 34.7144 33.0869C33.7925 33.6962 33.0777 34.5868 32.5699 35.7586C32.0621 36.9226 31.8082 38.3366 31.8082 40.0006C31.8082 41.7115 32.0621 43.1489 32.5699 44.3129C33.0855 45.4769 33.8042 46.3558 34.7261 46.9495C35.6479 47.5432 36.7142 47.8401 37.9251 47.8401C38.6048 47.8401 39.2337 47.7502 39.8117 47.5705C40.3977 47.3909 40.9172 47.1292 41.3703 46.7854C41.8234 46.4339 42.1983 46.0081 42.4952 45.5081C42.7999 45.0082 43.0108 44.4379 43.128 43.7973L48.2605 43.8207C48.1277 44.9222 47.7957 45.9847 47.2645 47.0081C46.7411 48.0236 46.0341 48.9337 45.1435 49.7384C44.2607 50.5352 43.2061 51.168 41.9796 51.6367C40.7609 52.0977 39.3821 52.3281 37.8431 52.3281C35.7026 52.3281 33.7886 51.8438 32.1012 50.8751C30.4216 49.9064 29.0935 48.5041 28.117 46.6682C27.1483 44.8324 26.664 42.6099 26.664 40.0006C26.664 37.3836 27.1561 35.1571 28.1405 33.3213C29.1248 31.4854 30.4607 30.087 32.1481 29.1262C33.8355 28.1575 35.7338 27.6731 37.8431 27.6731C39.2337 27.6731 40.5227 27.8684 41.7101 28.259C42.9053 28.6496 43.9639 29.2199 44.8857 29.9699C45.8075 30.712 46.5575 31.6221 47.1356 32.7002C47.7215 33.7783 48.0965 35.0126 48.2605 36.4031ZM73.9526 40.0006C73.9526 42.6177 73.4565 44.8441 72.4644 46.68C71.4801 48.5158 70.1364 49.9181 68.4333 50.8868C66.7381 51.8477 64.832 52.3281 62.7149 52.3281C60.5822 52.3281 58.6682 51.8438 56.973 50.8751C55.2778 49.9064 53.938 48.5041 52.9537 46.6682C51.9693 44.8324 51.4772 42.6099 51.4772 40.0006C51.4772 37.3836 51.9693 35.1571 52.9537 33.3213C53.938 31.4854 55.2778 30.087 56.973 29.1262C58.6682 28.1575 60.5822 27.6731 62.7149 27.6731C64.832 27.6731 66.7381 28.1575 68.4333 29.1262C70.1364 30.087 71.4801 31.4854 72.4644 33.3213C73.4565 35.1571 73.9526 37.3836 73.9526 40.0006ZM68.8083 40.0006C68.8083 38.3054 68.5544 36.8758 68.0466 35.7118C67.5467 34.5478 66.8397 33.665 65.9257 33.0635C65.0116 32.4619 63.9414 32.1612 62.7149 32.1612C61.4884 32.1612 60.4181 32.4619 59.5041 33.0635C58.5901 33.665 57.8792 34.5478 57.3714 35.7118C56.8714 36.8758 56.6214 38.3054 56.6214 40.0006C56.6214 41.6958 56.8714 43.1254 57.3714 44.2895C57.8792 45.4535 58.5901 46.3362 59.5041 46.9378C60.4181 47.5393 61.4884 47.8401 62.7149 47.8401C63.9414 47.8401 65.0116 47.5393 65.9257 46.9378C66.8397 46.3362 67.5467 45.4535 68.0466 44.2895C68.5544 43.1254 68.8083 41.6958 68.8083 40.0006ZM97.7844 28.0012V52H93.4018L82.9609 36.8953H82.7852V52H77.7112V28.0012H82.1641L92.5229 43.0942H92.7339V28.0012H97.7844ZM101.063 32.1846V28.0012H120.772V32.1846H113.425V52H108.41V32.1846H101.063ZM129.092 28.0012V52H124.018V28.0012H129.092ZM153.34 28.0012V52H148.958L138.517 36.8953H138.341V52H133.267V28.0012H137.72L148.079 43.0942H148.29V28.0012H153.34ZM157.532 52V28.0012H173.703V32.1846H162.606V37.9031H172.871V42.0864H162.606V47.8166H173.75V52H157.532ZM197.811 28.0012V52H193.428L182.987 36.8953H182.811V52H177.737V28.0012H182.19L192.549 43.0942H192.76V28.0012H197.811ZM201.089 32.1846V28.0012H220.799V32.1846H213.451V52H208.436V32.1846H201.089Z" fill="white"/>
<path d="M88.9688 16V8H91.7656C92.3229 8 92.7826 8.09635 93.1445 8.28906C93.5065 8.47917 93.776 8.73568 93.9531 9.05859C94.1302 9.37891 94.2188 9.73437 94.2188 10.125C94.2188 10.4687 94.1576 10.7526 94.0352 10.9766C93.9154 11.2005 93.7565 11.3776 93.5586 11.5078C93.3633 11.638 93.151 11.7344 92.9219 11.7969V11.875C93.1667 11.8906 93.4128 11.9766 93.6602 12.1328C93.9076 12.2891 94.1146 12.513 94.2813 12.8047C94.4479 13.0964 94.5312 13.4531 94.5312 13.875C94.5312 14.276 94.4401 14.6367 94.2578 14.957C94.0755 15.2773 93.7878 15.5312 93.3945 15.7187C93.0013 15.9062 92.4896 16 91.8594 16H88.9688ZM89.9375 15.1406H91.8594C92.4922 15.1406 92.9414 15.0182 93.207 14.7734C93.4753 14.526 93.6094 14.2266 93.6094 13.875C93.6094 13.6042 93.5404 13.3542 93.4023 13.125C93.2643 12.8932 93.0677 12.7083 92.8125 12.5703C92.5573 12.4297 92.2552 12.3594 91.9063 12.3594H89.9375V15.1406ZM89.9375 11.5156H91.7344C92.026 11.5156 92.2891 11.4583 92.5234 11.3437C92.7604 11.2292 92.9479 11.0677 93.0859 10.8594C93.2266 10.651 93.2969 10.4062 93.2969 10.125C93.2969 9.77344 93.1745 9.47526 92.9297 9.23047C92.6849 8.98307 92.2969 8.85937 91.7656 8.85937H89.9375V11.5156ZM101.373 8H102.342V13.2969C102.342 13.8437 102.213 14.332 101.955 14.7617C101.7 15.1888 101.339 15.526 100.873 15.7734C100.407 16.0182 99.86 16.1406 99.2324 16.1406C98.6048 16.1406 98.0579 16.0182 97.5918 15.7734C97.1257 15.526 96.7637 15.1888 96.5059 14.7617C96.2507 14.332 96.123 13.8437 96.123 13.2969V8H97.0918V13.2188C97.0918 13.6094 97.1777 13.957 97.3496 14.2617C97.5215 14.5638 97.7663 14.8021 98.084 14.9766C98.4043 15.1484 98.7871 15.2344 99.2324 15.2344C99.6777 15.2344 100.061 15.1484 100.381 14.9766C100.701 14.8021 100.946 14.5638 101.115 14.2617C101.287 13.957 101.373 13.6094 101.373 13.2188V8ZM108.651 10C108.604 9.60417 108.414 9.29688 108.081 9.07812C107.748 8.85937 107.339 8.75 106.854 8.75C106.5 8.75 106.19 8.80729 105.925 8.92187C105.662 9.03646 105.456 9.19401 105.308 9.39453C105.162 9.59505 105.089 9.82292 105.089 10.0781C105.089 10.2917 105.14 10.4753 105.241 10.6289C105.345 10.7799 105.478 10.9062 105.64 11.0078C105.801 11.1068 105.97 11.1888 106.147 11.2539C106.325 11.3164 106.487 11.3672 106.636 11.4062L107.448 11.625C107.657 11.6797 107.888 11.7552 108.144 11.8516C108.401 11.9479 108.647 12.0794 108.882 12.2461C109.119 12.4102 109.314 12.6211 109.468 12.8789C109.621 13.1367 109.698 13.4531 109.698 13.8281C109.698 14.2604 109.585 14.651 109.358 15C109.134 15.349 108.806 15.6263 108.374 15.832C107.944 16.0378 107.422 16.1406 106.808 16.1406C106.235 16.1406 105.739 16.0482 105.319 15.8633C104.903 15.6784 104.575 15.4206 104.335 15.0898C104.098 14.7591 103.964 14.375 103.933 13.9375H104.933C104.959 14.2396 105.06 14.4896 105.237 14.6875C105.417 14.8828 105.644 15.0286 105.917 15.125C106.193 15.2187 106.49 15.2656 106.808 15.2656C107.177 15.2656 107.509 15.2057 107.804 15.0859C108.098 14.9635 108.331 14.7943 108.503 14.5781C108.675 14.3594 108.761 14.1042 108.761 13.8125C108.761 13.5469 108.687 13.3307 108.538 13.1641C108.39 12.9974 108.194 12.862 107.952 12.7578C107.71 12.6536 107.448 12.5625 107.167 12.4844L106.183 12.2031C105.558 12.0234 105.063 11.7669 104.698 11.4336C104.334 11.1003 104.151 10.6641 104.151 10.125C104.151 9.67708 104.272 9.28646 104.515 8.95312C104.759 8.61719 105.088 8.35677 105.499 8.17187C105.913 7.98437 106.375 7.89062 106.886 7.89062C107.401 7.89062 107.86 7.98307 108.261 8.16797C108.662 8.35026 108.979 8.60026 109.214 8.91797C109.451 9.23568 109.576 9.59635 109.589 10H108.651ZM112.26 8V16H111.291V8H112.26ZM120.546 8V16H119.608L115.249 9.71875H115.171V16H114.202V8H115.14L119.515 14.2969H119.593V8H120.546ZM122.484 16V8H127.312V8.85937H123.453V11.5625H127.063V12.4219H123.453V15.1406H127.375V16H122.484ZM133.434 10C133.387 9.60417 133.197 9.29688 132.863 9.07812C132.53 8.85937 132.121 8.75 131.637 8.75C131.283 8.75 130.973 8.80729 130.707 8.92187C130.444 9.03646 130.238 9.19401 130.09 9.39453C129.944 9.59505 129.871 9.82292 129.871 10.0781C129.871 10.2917 129.922 10.4753 130.023 10.6289C130.128 10.7799 130.26 10.9062 130.422 11.0078C130.583 11.1068 130.753 11.1888 130.93 11.2539C131.107 11.3164 131.27 11.3672 131.418 11.4062L132.23 11.625C132.439 11.6797 132.671 11.7552 132.926 11.8516C133.184 11.9479 133.43 12.0794 133.664 12.2461C133.901 12.4102 134.096 12.6211 134.25 12.8789C134.404 13.1367 134.48 13.4531 134.48 13.8281C134.48 14.2604 134.367 14.651 134.141 15C133.917 15.349 133.589 15.6263 133.156 15.832C132.727 16.0378 132.204 16.1406 131.59 16.1406C131.017 16.1406 130.521 16.0482 130.102 15.8633C129.685 15.6784 129.357 15.4206 129.117 15.0898C128.88 14.7591 128.746 14.375 128.715 13.9375H129.715C129.741 14.2396 129.842 14.4896 130.02 14.6875C130.199 14.8828 130.426 15.0286 130.699 15.125C130.975 15.2187 131.272 15.2656 131.59 15.2656C131.96 15.2656 132.292 15.2057 132.586 15.0859C132.88 14.9635 133.113 14.7943 133.285 14.5781C133.457 14.3594 133.543 14.1042 133.543 13.8125C133.543 13.5469 133.469 13.3307 133.32 13.1641C133.172 12.9974 132.977 12.862 132.734 12.7578C132.492 12.6536 132.23 12.5625 131.949 12.4844L130.965 12.2031C130.34 12.0234 129.845 11.7669 129.48 11.4336C129.116 11.1003 128.934 10.6641 128.934 10.125C128.934 9.67708 129.055 9.28646 129.297 8.95312C129.542 8.61719 129.87 8.35677 130.281 8.17187C130.695 7.98437 131.158 7.89062 131.668 7.89062C132.184 7.89062 132.642 7.98307 133.043 8.16797C133.444 8.35026 133.762 8.60026 133.996 8.91797C134.233 9.23568 134.358 9.59635 134.371 10H133.434ZM140.448 10C140.401 9.60417 140.211 9.29688 139.878 9.07812C139.545 8.85937 139.136 8.75 138.651 8.75C138.297 8.75 137.987 8.80729 137.722 8.92187C137.459 9.03646 137.253 9.19401 137.104 9.39453C136.959 9.59505 136.886 9.82292 136.886 10.0781C136.886 10.2917 136.937 10.4753 137.038 10.6289C137.142 10.7799 137.275 10.9062 137.437 11.0078C137.598 11.1068 137.767 11.1888 137.944 11.2539C138.121 11.3164 138.284 11.3672 138.433 11.4062L139.245 11.625C139.453 11.6797 139.685 11.7552 139.94 11.8516C140.198 11.9479 140.444 12.0794 140.679 12.2461C140.916 12.4102 141.111 12.6211 141.265 12.8789C141.418 13.1367 141.495 13.4531 141.495 13.8281C141.495 14.2604 141.382 14.651 141.155 15C140.931 15.349 140.603 15.6263 140.171 15.832C139.741 16.0378 139.219 16.1406 138.604 16.1406C138.032 16.1406 137.535 16.0482 137.116 15.8633C136.7 15.6784 136.371 15.4206 136.132 15.0898C135.895 14.7591 135.761 14.375 135.729 13.9375H136.729C136.756 14.2396 136.857 14.4896 137.034 14.6875C137.214 14.8828 137.44 15.0286 137.714 15.125C137.99 15.2187 138.287 15.2656 138.604 15.2656C138.974 15.2656 139.306 15.2057 139.601 15.0859C139.895 14.9635 140.128 14.7943 140.3 14.5781C140.472 14.3594 140.558 14.1042 140.558 13.8125C140.558 13.5469 140.483 13.3307 140.335 13.1641C140.187 12.9974 139.991 12.862 139.749 12.7578C139.507 12.6536 139.245 12.5625 138.964 12.4844L137.979 12.2031C137.354 12.0234 136.86 11.7669 136.495 11.4336C136.131 11.1003 135.948 10.6641 135.948 10.125C135.948 9.67708 136.069 9.28646 136.312 8.95312C136.556 8.61719 136.884 8.35677 137.296 8.17187C137.71 7.98437 138.172 7.89062 138.683 7.89062C139.198 7.89062 139.657 7.98307 140.058 8.16797C140.459 8.35026 140.776 8.60026 141.011 8.91797C141.248 9.23568 141.373 9.59635 141.386 10H140.448ZM146.182 16V8H147.15V11.5625H151.416V8H152.385V16H151.416V12.4219H147.15V16H146.182ZM161.074 12C161.074 12.8437 160.922 13.5729 160.617 14.1875C160.313 14.8021 159.895 15.276 159.363 15.6094C158.832 15.9427 158.225 16.1094 157.543 16.1094C156.861 16.1094 156.254 15.9427 155.723 15.6094C155.191 15.276 154.773 14.8021 154.469 14.1875C154.164 13.5729 154.012 12.8437 154.012 12C154.012 11.1562 154.164 10.4271 154.469 9.8125C154.773 9.19792 155.191 8.72396 155.723 8.39062C156.254 8.05729 156.861 7.89062 157.543 7.89062C158.225 7.89062 158.832 8.05729 159.363 8.39062C159.895 8.72396 160.313 9.19792 160.617 9.8125C160.922 10.4271 161.074 11.1562 161.074 12ZM160.137 12C160.137 11.3073 160.021 10.7227 159.789 10.2461C159.56 9.76953 159.249 9.40885 158.855 9.16406C158.465 8.91927 158.027 8.79687 157.543 8.79687C157.059 8.79687 156.62 8.91927 156.227 9.16406C155.836 9.40885 155.525 9.76953 155.293 10.2461C155.064 10.7227 154.949 11.3073 154.949 12C154.949 12.6927 155.064 13.2773 155.293 13.7539C155.525 14.2305 155.836 14.5911 156.227 14.8359C156.62 15.0807 157.059 15.2031 157.543 15.2031C158.027 15.2031 158.465 15.0807 158.855 14.8359C159.249 14.5911 159.56 14.2305 159.789 13.7539C160.021 13.2773 160.137 12.6927 160.137 12ZM161.933 8.85937V8H167.933V8.85937H165.417V16H164.448V8.85937H161.933ZM169.428 16V8H174.256V8.85937H170.396V11.5625H174.006V12.4219H170.396V15.1406H174.318V16H169.428ZM176.002 16V8H176.971V15.1406H180.689V16H176.002Z" fill="white"/>
</g>
</g>
<defs>
<clipPath id="clip0_358_210">
<rect width="220" height="78" fill="white"/>
</clipPath>
</defs>
</svg>
