<svg width="220" height="78" viewBox="0 0 220 78" fill="none" xmlns="http://www.w3.org/2000/svg">
<g clip-path="url(#clip0)">
<path fill-rule="evenodd" clip-rule="evenodd" d="M26.3213 26.1411H31.3415V35.0977L38.3793 26.1411H44.3379L35.2592 37.7541L45.2294 52.1881H39.3411L31.3415 40.6221V52.1881H26.3213V26.1411Z" fill="black"/>
<path fill-rule="evenodd" clip-rule="evenodd" d="M57.1229 25.483C58.8759 25.4754 60.612 25.8259 62.2254 26.513C63.8387 27.2001 65.2954 28.2094 66.5066 29.4794C67.7941 30.7503 68.8097 32.2709 69.4914 33.9482C70.173 35.6256 70.5064 37.4245 70.4712 39.2353C70.5107 41.0284 70.1835 42.8107 69.5097 44.4723C68.836 46.134 67.8299 47.6398 66.5535 48.8971C65.2937 50.1645 63.7966 51.17 62.1481 51.8562C60.4995 52.5423 58.732 52.8955 56.9469 52.8955C55.1619 52.8955 53.3944 52.5423 51.7458 51.8562C50.0973 51.17 48.6002 50.1645 47.3404 48.8971C45.2798 46.7393 43.9666 43.9744 43.5948 41.0111C43.223 38.0478 43.8125 35.0432 45.276 32.4414C46.4668 30.3794 48.1768 28.6667 50.2352 27.4744C52.2936 26.2822 54.6281 25.6523 57.0056 25.6476L57.1229 25.483ZM57.1229 30.3257C55.978 30.2995 54.8406 30.5164 53.7853 30.9621C52.7301 31.4078 51.7808 32.0721 51.0001 32.9116C50.202 33.7659 49.5831 34.772 49.1802 35.8704C48.7772 36.9687 48.5983 38.1369 48.6541 39.3058C48.5932 40.5862 48.8283 41.8634 49.341 43.0378C49.8537 44.2122 50.6302 45.252 51.61 46.0762C53.1549 47.3702 55.1094 48.0703 57.1229 48.0508C58.2416 48.069 59.3516 47.8525 60.3818 47.4153C61.4121 46.9781 62.3396 46.3297 63.105 45.512C63.937 44.6906 64.5945 43.709 65.038 42.6263C65.4815 41.5435 65.7017 40.3821 65.6855 39.2118C65.7034 38.0434 65.4863 36.8833 65.0469 35.8009C64.6076 34.7184 63.9551 33.7358 63.1284 32.9116C62.3535 32.0853 61.4148 31.4306 60.3725 30.9893C59.3302 30.548 58.2073 30.33 57.076 30.3492L57.1229 30.3257Z" fill="black"/>
<path fill-rule="evenodd" clip-rule="evenodd" d="M73.5449 26.1411H78.5652V35.9675H87.2685V26.1411H92.2653V52.1881H87.2685V40.7632H78.5652V52.1881H73.5449V26.1411Z" fill="black"/>
<path fill-rule="evenodd" clip-rule="evenodd" d="M95.6191 26.1411H109.976V31.0308H105.261V52.1881H100.241V31.0308H95.6191V26.1411Z" fill="black"/>
<path fill-rule="evenodd" clip-rule="evenodd" d="M134.233 26.1411H129.494L118.351 43.2785V26.1411H113.401V52.1881H118.164L129.283 35.0977V52.1881H134.233V26.1411Z" fill="black"/>
<path fill-rule="evenodd" clip-rule="evenodd" d="M140.121 26.1411H145.141V35.9675H153.845V26.1411H158.841V52.1881H153.845V40.7632H145.141V52.1881H140.121V26.1411Z" fill="black"/>
<path fill-rule="evenodd" clip-rule="evenodd" d="M164.777 26.1411H178.97V30.9838H169.704V35.7089H178.97V40.4576H169.704V47.3219H178.97V52.1881H164.777V26.1411Z" fill="black"/>
<path fill-rule="evenodd" clip-rule="evenodd" d="M183.568 26.1411H188.589V35.9675H197.269V26.1411H202.265V52.1881H197.269V40.7632H188.589V52.1881H183.568V26.1411Z" fill="black"/>
<path fill-rule="evenodd" clip-rule="evenodd" d="M205.619 26.1411H220V31.0308H215.261V52.1881H210.241V31.0308H205.619V26.1411Z" fill="black"/>
<path fill-rule="evenodd" clip-rule="evenodd" d="M39.505 0L41.0768 3.54973L44.9006 3.94937L42.0386 6.53526L42.8362 10.3201L39.505 8.39241L36.1503 10.3201L36.948 6.53526L34.0859 3.94937L37.9332 3.54973L39.505 0Z" fill="#C7A462"/>
<path fill-rule="evenodd" clip-rule="evenodd" d="M39.505 67.6802L41.0768 71.2299L44.9006 71.6295L42.0386 74.2154L42.8362 78.0238L39.505 76.0726L36.1503 78.0238L36.948 74.2154L34.0859 71.6295L37.9332 71.2299L39.505 67.6802Z" fill="#C7A462"/>
<path fill-rule="evenodd" clip-rule="evenodd" d="M5.41907 35.1211L6.99083 38.6708L10.8381 39.0705L7.95265 41.6564L8.77373 45.4647L5.41907 43.5135L2.06441 45.4647L2.88548 41.6564L0 39.0705L3.8473 38.6708L5.41907 35.1211Z" fill="#C7A462"/>
<path fill-rule="evenodd" clip-rule="evenodd" d="M10.9552 18.5713L12.527 22.121L16.3743 22.5207L13.5122 25.1066L14.3099 28.8914L10.9552 26.9637L7.624 28.8914L8.42161 25.1066L5.53613 22.5207L9.38344 22.121L10.9552 18.5713Z" fill="#C7A462"/>
<path fill-rule="evenodd" clip-rule="evenodd" d="M22.0519 5.80664L23.6236 9.33286L27.4709 9.7325L24.5855 12.3419L25.3831 16.1267L22.0519 14.1755L18.6972 16.1267L19.4948 12.3419L16.6328 9.7325L20.4801 9.33286L22.0519 5.80664Z" fill="#C7A462"/>
<path fill-rule="evenodd" clip-rule="evenodd" d="M68.6183 16.7612L67.0465 20.2875L63.1992 20.6871L66.0612 23.2965L65.2636 27.0813L68.6183 25.1301L71.9495 27.0813L71.1519 23.2965L74.0139 20.6871L70.1666 20.2875L68.6183 16.7612Z" fill="#C7A462"/>
<path fill-rule="evenodd" clip-rule="evenodd" d="M57.5216 5.80664L55.9498 9.33286L52.1025 9.7325L54.988 12.3419L54.1669 16.1267L57.5216 14.1755L60.8763 16.1267L60.0787 12.3419L62.9407 9.7325L59.0934 9.33286L57.5216 5.80664Z" fill="#C7A462"/>
<path fill-rule="evenodd" clip-rule="evenodd" d="M10.9552 50.9189L12.527 54.4687L16.3743 54.8683L13.5122 57.4542L14.3099 61.239L10.9552 59.3113L7.624 61.239L8.42161 57.4542L5.53613 54.8683L9.38344 54.4687L10.9552 50.9189Z" fill="#C7A462"/>
<path fill-rule="evenodd" clip-rule="evenodd" d="M22.0519 64.271L23.6236 67.7972L27.4709 68.2204L24.5855 70.8063L25.3831 74.5911L22.0519 72.6634L18.6972 74.5911L19.4948 70.8063L16.6328 68.2204L20.4801 67.7972L22.0519 64.271Z" fill="#C7A462"/>
<path fill-rule="evenodd" clip-rule="evenodd" d="M68.6183 50.9189L67.0465 54.4687L63.1992 54.8683L66.0612 57.4542L65.2636 61.239L68.6183 59.3113L71.9495 61.239L71.1519 57.4542L74.0139 54.8683L70.1666 54.4687L68.6183 50.9189Z" fill="#C7A462"/>
<path fill-rule="evenodd" clip-rule="evenodd" d="M57.5216 64.271L55.9498 67.7972L52.1025 68.2204L54.988 70.8063L54.1669 74.5911L57.5216 72.6634L60.8763 74.5911L60.0787 70.8063L62.9407 68.2204L59.0934 67.7972L57.5216 64.271Z" fill="#C7A462"/>
<path d="M89.224 16C89.144 16 89.076 15.972 89.02 15.916C88.964 15.86 88.936 15.792 88.936 15.712V7.9C88.936 7.812 88.96 7.74 89.008 7.684C89.064 7.628 89.136 7.6 89.224 7.6H94.72C94.808 7.6 94.876 7.628 94.924 7.684C94.98 7.74 95.008 7.812 95.008 7.9V8.74C95.008 8.82 94.98 8.888 94.924 8.944C94.876 9 94.808 9.028 94.72 9.028H90.604V10.948H92.632C93.536 10.948 94.244 11.172 94.756 11.62C95.268 12.068 95.524 12.676 95.524 13.444C95.524 13.9 95.412 14.324 95.188 14.716C94.972 15.1 94.644 15.412 94.204 15.652C93.772 15.884 93.248 16 92.632 16H89.224ZM92.464 14.728C92.872 14.728 93.196 14.604 93.436 14.356C93.684 14.1 93.808 13.788 93.808 13.42C93.808 13.052 93.692 12.756 93.46 12.532C93.228 12.308 92.896 12.196 92.464 12.196H90.604V14.728H92.464ZM97.0053 16C96.9173 16 96.8453 15.972 96.7893 15.916C96.7413 15.86 96.7173 15.788 96.7173 15.7V7.9C96.7173 7.812 96.7453 7.74 96.8013 7.684C96.8573 7.628 96.9293 7.6 97.0173 7.6H98.0973C98.1853 7.6 98.2533 7.628 98.3013 7.684C98.3573 7.74 98.3853 7.812 98.3853 7.9V13.408L102.333 7.792C102.421 7.664 102.537 7.6 102.681 7.6H103.677C103.765 7.6 103.833 7.628 103.881 7.684C103.937 7.74 103.965 7.812 103.965 7.9V15.712C103.965 15.792 103.937 15.86 103.881 15.916C103.833 15.972 103.765 16 103.677 16H102.597C102.509 16 102.437 15.976 102.381 15.928C102.325 15.872 102.297 15.8 102.297 15.712V10.312L98.3613 15.808C98.3133 15.872 98.2653 15.92 98.2173 15.952C98.1693 15.984 98.1013 16 98.0133 16H97.0053ZM108.678 16.12C107.974 16.12 107.378 16.02 106.89 15.82C106.41 15.612 106.042 15.34 105.786 15.004C105.538 14.66 105.394 14.288 105.354 13.888V13.864C105.354 13.8 105.378 13.748 105.426 13.708C105.474 13.668 105.534 13.648 105.606 13.648H106.686C106.854 13.648 106.97 13.728 107.034 13.888C107.13 14.152 107.314 14.364 107.586 14.524C107.858 14.676 108.21 14.752 108.642 14.752C109.146 14.752 109.558 14.644 109.878 14.428C110.206 14.212 110.37 13.92 110.37 13.552C110.37 13.168 110.226 12.872 109.938 12.664C109.658 12.448 109.262 12.34 108.75 12.34H107.886C107.806 12.34 107.738 12.312 107.682 12.256C107.626 12.2 107.598 12.128 107.598 12.04V11.344C107.598 11.256 107.626 11.184 107.682 11.128C107.738 11.072 107.806 11.044 107.886 11.044H108.714C109.146 11.044 109.486 10.952 109.734 10.768C109.99 10.584 110.118 10.308 110.118 9.94C110.118 9.612 109.982 9.352 109.71 9.16C109.446 8.96 109.102 8.86 108.678 8.86C108.246 8.86 107.894 8.936 107.622 9.088C107.358 9.232 107.194 9.448 107.13 9.736C107.098 9.816 107.058 9.876 107.01 9.916C106.97 9.948 106.906 9.964 106.818 9.964H105.702C105.63 9.964 105.566 9.94 105.51 9.892C105.462 9.844 105.442 9.784 105.45 9.712C105.506 9.064 105.802 8.532 106.338 8.116C106.882 7.692 107.67 7.48 108.702 7.48C109.342 7.48 109.894 7.588 110.358 7.804C110.83 8.012 111.19 8.296 111.438 8.656C111.686 9.008 111.81 9.392 111.81 9.808C111.81 10.176 111.734 10.516 111.582 10.828C111.438 11.14 111.198 11.392 110.862 11.584C111.278 11.792 111.586 12.076 111.786 12.436C111.986 12.788 112.086 13.176 112.086 13.6C112.086 14.096 111.946 14.536 111.666 14.92C111.386 15.296 110.99 15.592 110.478 15.808C109.966 16.016 109.366 16.12 108.678 16.12ZM113.88 16C113.8 16 113.732 15.972 113.676 15.916C113.62 15.86 113.592 15.792 113.592 15.712V7.9C113.592 7.812 113.616 7.74 113.664 7.684C113.72 7.628 113.792 7.6 113.88 7.6H114.972C115.06 7.6 115.128 7.628 115.176 7.684C115.232 7.74 115.26 7.812 115.26 7.9V10.996H118.8V7.9C118.8 7.812 118.824 7.74 118.872 7.684C118.928 7.628 119 7.6 119.088 7.6H120.168C120.256 7.6 120.328 7.628 120.384 7.684C120.44 7.74 120.468 7.812 120.468 7.9V15.712C120.468 15.8 120.44 15.872 120.384 15.928C120.328 15.976 120.256 16 120.168 16H119.088C119.008 16 118.94 15.972 118.884 15.916C118.828 15.86 118.8 15.792 118.8 15.712V12.496H115.26V15.712C115.26 15.792 115.232 15.86 115.176 15.916C115.128 15.972 115.06 16 114.972 16H113.88ZM122.622 16C122.542 16 122.474 15.972 122.418 15.916C122.362 15.86 122.334 15.792 122.334 15.712V7.9C122.334 7.812 122.358 7.74 122.406 7.684C122.462 7.628 122.534 7.6 122.622 7.6H127.902C127.99 7.6 128.062 7.628 128.118 7.684C128.174 7.74 128.202 7.812 128.202 7.9V8.692C128.202 8.78 128.174 8.852 128.118 8.908C128.062 8.956 127.99 8.98 127.902 8.98H123.954V11.104H127.638C127.726 11.104 127.798 11.132 127.854 11.188C127.91 11.236 127.938 11.304 127.938 11.392V12.136C127.938 12.224 127.91 12.296 127.854 12.352C127.798 12.4 127.726 12.424 127.638 12.424H123.954V14.62H127.998C128.086 14.62 128.158 14.648 128.214 14.704C128.27 14.76 128.298 14.832 128.298 14.92V15.712C128.298 15.8 128.27 15.872 128.214 15.928C128.158 15.976 128.086 16 127.998 16H122.622ZM132.969 16.12C131.865 16.12 131.009 15.836 130.401 15.268C129.801 14.7 129.481 13.9 129.441 12.868C129.433 12.652 129.429 12.3 129.429 11.812C129.429 11.316 129.433 10.956 129.441 10.732C129.481 9.708 129.805 8.912 130.413 8.344C131.029 7.768 131.881 7.48 132.969 7.48C133.681 7.48 134.301 7.604 134.829 7.852C135.357 8.092 135.765 8.424 136.053 8.848C136.341 9.264 136.493 9.736 136.509 10.264V10.288C136.509 10.352 136.481 10.408 136.425 10.456C136.377 10.496 136.321 10.516 136.257 10.516H135.117C135.021 10.516 134.949 10.496 134.901 10.456C134.853 10.416 134.813 10.34 134.781 10.228C134.653 9.724 134.441 9.372 134.145 9.172C133.849 8.964 133.453 8.86 132.957 8.86C131.805 8.86 131.205 9.504 131.157 10.792C131.149 11.008 131.145 11.34 131.145 11.788C131.145 12.236 131.149 12.576 131.157 12.808C131.205 14.096 131.805 14.74 132.957 14.74C133.453 14.74 133.849 14.636 134.145 14.428C134.449 14.22 134.661 13.868 134.781 13.372C134.805 13.26 134.841 13.184 134.889 13.144C134.945 13.104 135.021 13.084 135.117 13.084H136.257C136.329 13.084 136.389 13.108 136.437 13.156C136.493 13.204 136.517 13.264 136.509 13.336C136.493 13.864 136.341 14.34 136.053 14.764C135.765 15.18 135.357 15.512 134.829 15.76C134.301 16 133.681 16.12 132.969 16.12ZM138.04 13.084C137.96 13.084 137.892 13.056 137.836 13C137.78 12.944 137.752 12.876 137.752 12.796V12.004C137.752 11.916 137.78 11.848 137.836 11.8C137.892 11.744 137.96 11.716 138.04 11.716H141.724C141.812 11.716 141.88 11.744 141.928 11.8C141.984 11.848 142.012 11.916 142.012 12.004V12.796C142.012 12.876 141.984 12.944 141.928 13C141.88 13.056 141.812 13.084 141.724 13.084H138.04ZM146.937 16.12C145.849 16.12 145.001 15.844 144.393 15.292C143.785 14.74 143.465 13.92 143.433 12.832C143.425 12.6 143.421 12.26 143.421 11.812C143.421 11.356 143.425 11.012 143.433 10.78C143.465 9.716 143.793 8.9 144.417 8.332C145.041 7.764 145.881 7.48 146.937 7.48C147.993 7.48 148.833 7.764 149.457 8.332C150.089 8.9 150.421 9.716 150.453 10.78C150.469 11.244 150.477 11.588 150.477 11.812C150.477 12.028 150.469 12.368 150.453 12.832C150.413 13.92 150.089 14.74 149.481 15.292C148.873 15.844 148.025 16.12 146.937 16.12ZM146.937 14.74C147.473 14.74 147.901 14.58 148.221 14.26C148.541 13.932 148.713 13.436 148.737 12.772C148.753 12.292 148.761 11.968 148.761 11.8C148.761 11.616 148.753 11.292 148.737 10.828C148.713 10.164 148.541 9.672 148.221 9.352C147.901 9.024 147.473 8.86 146.937 8.86C146.409 8.86 145.985 9.024 145.665 9.352C145.345 9.672 145.173 10.164 145.149 10.828C145.141 11.06 145.137 11.384 145.137 11.8C145.137 12.208 145.141 12.532 145.149 12.772C145.173 13.436 145.341 13.932 145.653 14.26C145.973 14.58 146.401 14.74 146.937 14.74ZM154.189 16C154.109 16 154.041 15.972 153.985 15.916C153.929 15.86 153.901 15.792 153.901 15.712V9.076H151.681C151.601 9.076 151.533 9.048 151.477 8.992C151.421 8.936 151.393 8.868 151.393 8.788V7.9C151.393 7.812 151.417 7.74 151.465 7.684C151.521 7.628 151.593 7.6 151.681 7.6H157.801C157.889 7.6 157.961 7.628 158.017 7.684C158.073 7.74 158.101 7.812 158.101 7.9V8.788C158.101 8.868 158.073 8.936 158.017 8.992C157.961 9.048 157.889 9.076 157.801 9.076H155.593V15.712C155.593 15.792 155.565 15.86 155.509 15.916C155.453 15.972 155.381 16 155.293 16H154.189ZM159.607 16C159.527 16 159.459 15.972 159.403 15.916C159.347 15.86 159.319 15.792 159.319 15.712V7.9C159.319 7.812 159.343 7.74 159.391 7.684C159.447 7.628 159.519 7.6 159.607 7.6H164.887C164.975 7.6 165.047 7.628 165.103 7.684C165.159 7.74 165.187 7.812 165.187 7.9V8.692C165.187 8.78 165.159 8.852 165.103 8.908C165.047 8.956 164.975 8.98 164.887 8.98H160.939V11.104H164.623C164.711 11.104 164.783 11.132 164.839 11.188C164.895 11.236 164.923 11.304 164.923 11.392V12.136C164.923 12.224 164.895 12.296 164.839 12.352C164.783 12.4 164.711 12.424 164.623 12.424H160.939V14.62H164.983C165.071 14.62 165.143 14.648 165.199 14.704C165.255 14.76 165.283 14.832 165.283 14.92V15.712C165.283 15.8 165.255 15.872 165.199 15.928C165.143 15.976 165.071 16 164.983 16H159.607ZM172.34 16C172.26 16 172.192 15.972 172.136 15.916C172.08 15.86 172.052 15.792 172.052 15.712V9.1H169.448V10.612C169.448 11.932 169.356 12.976 169.172 13.744C168.996 14.504 168.692 15.064 168.26 15.424C167.828 15.776 167.228 15.964 166.46 15.988C166.38 15.996 166.308 15.972 166.244 15.916C166.188 15.86 166.16 15.788 166.16 15.7V14.8C166.16 14.72 166.184 14.656 166.232 14.608C166.28 14.56 166.348 14.528 166.436 14.512C166.908 14.432 167.256 14.06 167.48 13.396C167.712 12.724 167.828 11.724 167.828 10.396V7.888C167.828 7.8 167.856 7.732 167.912 7.684C167.968 7.628 168.036 7.6 168.116 7.6H173.42C173.508 7.6 173.58 7.628 173.636 7.684C173.692 7.74 173.72 7.812 173.72 7.9V15.712C173.72 15.8 173.692 15.872 173.636 15.928C173.58 15.976 173.508 16 173.42 16H172.34ZM175.884 16C175.804 16 175.736 15.972 175.68 15.916C175.624 15.86 175.596 15.792 175.596 15.712V7.888C175.596 7.8 175.624 7.732 175.68 7.684C175.736 7.628 175.804 7.6 175.884 7.6H176.976C177.064 7.6 177.132 7.628 177.18 7.684C177.236 7.732 177.264 7.8 177.264 7.888V10.636H178.812C179.772 10.636 180.508 10.86 181.02 11.308C181.54 11.756 181.8 12.412 181.8 13.276C181.8 13.796 181.684 14.264 181.452 14.68C181.228 15.088 180.892 15.412 180.444 15.652C179.996 15.884 179.452 16 178.812 16H175.884ZM178.74 14.668C179.164 14.668 179.492 14.54 179.724 14.284C179.964 14.028 180.084 13.688 180.084 13.264C180.084 12.4 179.636 11.968 178.74 11.968H177.264V14.668H178.74Z" fill="#4F4F4F"/>
</g>
<defs>
<clipPath id="clip0">
<path d="M0 0H220V78H0V0Z" fill="white"/>
</clipPath>
</defs>
</svg>
