<svg width="220" height="78" viewBox="0 0 220 78" fill="none" xmlns="http://www.w3.org/2000/svg">
<g clip-path="url(#clip0)">
<path fill-rule="evenodd" clip-rule="evenodd" d="M26.3213 26.1411H31.3415V35.0977L38.3793 26.1411H44.3379L35.2592 37.7541L45.2294 52.1881H39.3411L31.3415 40.6221V52.1881H26.3213V26.1411Z" fill="white"/>
<path fill-rule="evenodd" clip-rule="evenodd" d="M57.1229 25.483C58.8759 25.4754 60.612 25.8259 62.2254 26.513C63.8387 27.2001 65.2954 28.2094 66.5066 29.4794C67.7941 30.7503 68.8097 32.2709 69.4914 33.9482C70.173 35.6256 70.5064 37.4245 70.4712 39.2353C70.5107 41.0284 70.1835 42.8107 69.5097 44.4723C68.836 46.134 67.8299 47.6398 66.5535 48.8971C65.2937 50.1645 63.7966 51.17 62.1481 51.8562C60.4995 52.5423 58.732 52.8955 56.9469 52.8955C55.1619 52.8955 53.3944 52.5423 51.7458 51.8562C50.0973 51.17 48.6002 50.1645 47.3404 48.8971C45.2798 46.7393 43.9666 43.9744 43.5948 41.0111C43.223 38.0478 43.8125 35.0432 45.276 32.4414C46.4668 30.3794 48.1768 28.6667 50.2352 27.4744C52.2936 26.2822 54.6281 25.6523 57.0056 25.6476L57.1229 25.483ZM57.1229 30.3257C55.978 30.2995 54.8406 30.5164 53.7853 30.9621C52.7301 31.4078 51.7808 32.0721 51.0001 32.9116C50.202 33.7659 49.5831 34.772 49.1802 35.8704C48.7772 36.9687 48.5983 38.1369 48.6541 39.3058C48.5932 40.5862 48.8283 41.8634 49.341 43.0378C49.8537 44.2122 50.6302 45.252 51.61 46.0762C53.1549 47.3702 55.1094 48.0703 57.1229 48.0508C58.2416 48.069 59.3516 47.8525 60.3818 47.4153C61.4121 46.9781 62.3396 46.3297 63.105 45.512C63.937 44.6906 64.5945 43.709 65.038 42.6263C65.4815 41.5435 65.7017 40.3821 65.6855 39.2118C65.7034 38.0434 65.4863 36.8833 65.0469 35.8009C64.6076 34.7184 63.9551 33.7358 63.1284 32.9116C62.3535 32.0853 61.4148 31.4306 60.3725 30.9893C59.3302 30.548 58.2073 30.33 57.076 30.3492L57.1229 30.3257Z" fill="white"/>
<path fill-rule="evenodd" clip-rule="evenodd" d="M73.5444 26.1411H78.5647V35.9675H87.268V26.1411H92.2648V52.1881H87.268V40.7632H78.5647V52.1881H73.5444V26.1411Z" fill="white"/>
<path fill-rule="evenodd" clip-rule="evenodd" d="M95.6191 26.1411H109.976V31.0308H105.261V52.1881H100.241V31.0308H95.6191V26.1411Z" fill="white"/>
<path fill-rule="evenodd" clip-rule="evenodd" d="M134.233 26.1411H129.494L118.351 43.2785V26.1411H113.401V52.1881H118.164L129.283 35.0977V52.1881H134.233V26.1411Z" fill="white"/>
<path fill-rule="evenodd" clip-rule="evenodd" d="M140.122 26.1411H145.142V35.9675H153.845V26.1411H158.842V52.1881H153.845V40.7632H145.142V52.1881H140.122V26.1411Z" fill="white"/>
<path fill-rule="evenodd" clip-rule="evenodd" d="M164.777 26.1411H178.97V30.9838H169.704V35.7089H178.97V40.4576H169.704V47.3219H178.97V52.1881H164.777V26.1411Z" fill="white"/>
<path fill-rule="evenodd" clip-rule="evenodd" d="M183.568 26.1411H188.588V35.9675H197.268V26.1411H202.265V52.1881H197.268V40.7632H188.588V52.1881H183.568V26.1411Z" fill="white"/>
<path fill-rule="evenodd" clip-rule="evenodd" d="M205.62 26.1411H220V31.0308H215.261V52.1881H210.241V31.0308H205.62V26.1411Z" fill="white"/>
<path fill-rule="evenodd" clip-rule="evenodd" d="M39.505 0L41.0768 3.54973L44.9006 3.94937L42.0386 6.53526L42.8362 10.3201L39.505 8.39241L36.1503 10.3201L36.948 6.53526L34.0859 3.94937L37.9332 3.54973L39.505 0Z" fill="#FCDB9D"/>
<path fill-rule="evenodd" clip-rule="evenodd" d="M39.505 67.6802L41.0768 71.2299L44.9006 71.6295L42.0386 74.2154L42.8362 78.0238L39.505 76.0726L36.1503 78.0238L36.948 74.2154L34.0859 71.6295L37.9332 71.2299L39.505 67.6802Z" fill="#FCDB9D"/>
<path fill-rule="evenodd" clip-rule="evenodd" d="M5.41907 35.1211L6.99083 38.6708L10.8381 39.0705L7.95265 41.6564L8.77373 45.4647L5.41907 43.5135L2.06441 45.4647L2.88548 41.6564L0 39.0705L3.8473 38.6708L5.41907 35.1211Z" fill="#FCDB9D"/>
<path fill-rule="evenodd" clip-rule="evenodd" d="M10.9552 18.5713L12.527 22.121L16.3743 22.5207L13.5122 25.1066L14.3099 28.8914L10.9552 26.9637L7.624 28.8914L8.42161 25.1066L5.53613 22.5207L9.38344 22.121L10.9552 18.5713Z" fill="#FCDB9D"/>
<path fill-rule="evenodd" clip-rule="evenodd" d="M22.0514 5.80664L23.6231 9.33286L27.4705 9.7325L24.585 12.3419L25.3826 16.1267L22.0514 14.1755L18.6967 16.1267L19.4943 12.3419L16.6323 9.7325L20.4796 9.33286L22.0514 5.80664Z" fill="#FCDB9D"/>
<path fill-rule="evenodd" clip-rule="evenodd" d="M68.6178 16.7612L67.046 20.2875L63.1987 20.6871L66.0607 23.2965L65.2631 27.0813L68.6178 25.1301L71.949 27.0813L71.1514 23.2965L74.0134 20.6871L70.1661 20.2875L68.6178 16.7612Z" fill="#FCDB9D"/>
<path fill-rule="evenodd" clip-rule="evenodd" d="M57.5221 5.80664L55.9503 9.33286L52.103 9.7325L54.9885 12.3419L54.1674 16.1267L57.5221 14.1755L60.8768 16.1267L60.0791 12.3419L62.9412 9.7325L59.0939 9.33286L57.5221 5.80664Z" fill="#FCDB9D"/>
<path fill-rule="evenodd" clip-rule="evenodd" d="M10.9552 50.9189L12.527 54.4687L16.3743 54.8683L13.5122 57.4542L14.3099 61.239L10.9552 59.3113L7.624 61.239L8.42161 57.4542L5.53613 54.8683L9.38344 54.4687L10.9552 50.9189Z" fill="#FCDB9D"/>
<path fill-rule="evenodd" clip-rule="evenodd" d="M22.0514 64.271L23.6231 67.7972L27.4705 68.2204L24.585 70.8063L25.3826 74.5911L22.0514 72.6634L18.6967 74.5911L19.4943 70.8063L16.6323 68.2204L20.4796 67.7972L22.0514 64.271Z" fill="#FCDB9D"/>
<path fill-rule="evenodd" clip-rule="evenodd" d="M68.6178 50.9189L67.046 54.4687L63.1987 54.8683L66.0607 57.4542L65.2631 61.239L68.6178 59.3113L71.949 61.239L71.1514 57.4542L74.0134 54.8683L70.1661 54.4687L68.6178 50.9189Z" fill="#FCDB9D"/>
<path fill-rule="evenodd" clip-rule="evenodd" d="M57.5221 64.271L55.9503 67.7972L52.103 68.2204L54.9885 70.8063L54.1674 74.5911L57.5221 72.6634L60.8768 74.5911L60.0791 70.8063L62.9412 68.2204L59.0939 67.7972L57.5221 64.271Z" fill="#FCDB9D"/>
<path d="M89.224 16C89.144 16 89.076 15.972 89.02 15.916C88.964 15.86 88.936 15.792 88.936 15.712V7.9C88.936 7.812 88.96 7.74 89.008 7.684C89.064 7.628 89.136 7.6 89.224 7.6H94.72C94.808 7.6 94.88 7.628 94.936 7.684C94.992 7.74 95.02 7.812 95.02 7.9V8.752C95.02 8.84 94.992 8.912 94.936 8.968C94.88 9.016 94.808 9.04 94.72 9.04H90.628V10.948H92.632C93.536 10.948 94.244 11.172 94.756 11.62C95.276 12.068 95.536 12.676 95.536 13.444C95.536 13.9 95.424 14.324 95.2 14.716C94.976 15.1 94.644 15.412 94.204 15.652C93.772 15.884 93.248 16 92.632 16H89.224ZM92.464 14.716C92.872 14.716 93.196 14.592 93.436 14.344C93.676 14.096 93.796 13.788 93.796 13.42C93.796 13.06 93.68 12.768 93.448 12.544C93.224 12.312 92.896 12.196 92.464 12.196H90.628V14.716H92.464ZM97.017 16C96.929 16 96.857 15.972 96.801 15.916C96.753 15.86 96.729 15.788 96.729 15.7V7.9C96.729 7.812 96.753 7.74 96.801 7.684C96.857 7.628 96.929 7.6 97.017 7.6H98.133C98.213 7.6 98.281 7.628 98.337 7.684C98.393 7.74 98.421 7.812 98.421 7.9V13.384L102.345 7.804C102.417 7.668 102.533 7.6 102.693 7.6H103.701C103.789 7.6 103.857 7.628 103.905 7.684C103.961 7.74 103.989 7.812 103.989 7.9V15.712C103.989 15.792 103.961 15.86 103.905 15.916C103.857 15.972 103.789 16 103.701 16H102.597C102.509 16 102.437 15.972 102.381 15.916C102.325 15.86 102.297 15.792 102.297 15.712V10.348L98.385 15.796C98.305 15.932 98.189 16 98.037 16H97.017ZM108.714 16.12C108.01 16.12 107.414 16.016 106.926 15.808C106.438 15.6 106.066 15.328 105.81 14.992C105.562 14.656 105.418 14.288 105.378 13.888V13.864C105.378 13.8 105.402 13.748 105.45 13.708C105.498 13.668 105.558 13.648 105.63 13.648H106.722C106.81 13.648 106.882 13.668 106.938 13.708C107.002 13.74 107.05 13.8 107.082 13.888C107.178 14.152 107.358 14.36 107.622 14.512C107.894 14.664 108.246 14.74 108.678 14.74C109.174 14.74 109.582 14.632 109.902 14.416C110.222 14.2 110.382 13.908 110.382 13.54C110.382 13.156 110.242 12.864 109.962 12.664C109.682 12.456 109.29 12.352 108.786 12.352H107.91C107.83 12.352 107.762 12.324 107.706 12.268C107.65 12.204 107.622 12.132 107.622 12.052V11.344C107.622 11.256 107.65 11.184 107.706 11.128C107.762 11.064 107.83 11.032 107.91 11.032H108.75C109.174 11.032 109.51 10.944 109.758 10.768C110.006 10.584 110.13 10.308 110.13 9.94C110.13 9.62 109.998 9.364 109.734 9.172C109.47 8.972 109.13 8.872 108.714 8.872C108.29 8.872 107.942 8.948 107.67 9.1C107.406 9.244 107.242 9.456 107.178 9.736C107.146 9.816 107.106 9.876 107.058 9.916C107.01 9.948 106.942 9.964 106.854 9.964H105.726C105.654 9.964 105.59 9.94 105.534 9.892C105.486 9.844 105.466 9.784 105.474 9.712C105.53 9.064 105.83 8.532 106.374 8.116C106.918 7.692 107.706 7.48 108.738 7.48C109.378 7.48 109.934 7.588 110.406 7.804C110.878 8.012 111.238 8.296 111.486 8.656C111.734 9.008 111.858 9.392 111.858 9.808C111.858 10.168 111.782 10.508 111.63 10.828C111.486 11.14 111.242 11.392 110.898 11.584C111.314 11.792 111.622 12.076 111.822 12.436C112.022 12.788 112.122 13.176 112.122 13.6C112.122 14.096 111.982 14.536 111.702 14.92C111.422 15.296 111.026 15.592 110.514 15.808C110.002 16.016 109.402 16.12 108.714 16.12ZM113.915 16C113.835 16 113.767 15.972 113.711 15.916C113.655 15.86 113.627 15.792 113.627 15.712V7.9C113.627 7.812 113.651 7.74 113.699 7.684C113.755 7.628 113.827 7.6 113.915 7.6H115.019C115.107 7.6 115.179 7.628 115.235 7.684C115.291 7.74 115.319 7.812 115.319 7.9V10.984H118.823V7.9C118.823 7.812 118.851 7.74 118.907 7.684C118.963 7.628 119.031 7.6 119.111 7.6H120.227C120.315 7.6 120.383 7.628 120.431 7.684C120.487 7.74 120.515 7.812 120.515 7.9V15.712C120.515 15.792 120.487 15.86 120.431 15.916C120.383 15.972 120.315 16 120.227 16H119.111C119.031 16 118.963 15.972 118.907 15.916C118.851 15.86 118.823 15.792 118.823 15.712V12.508H115.319V15.712C115.319 15.792 115.291 15.86 115.235 15.916C115.179 15.972 115.107 16 115.019 16H113.915ZM122.681 16C122.601 16 122.533 15.972 122.477 15.916C122.421 15.86 122.393 15.792 122.393 15.712V7.9C122.393 7.812 122.417 7.74 122.465 7.684C122.521 7.628 122.593 7.6 122.681 7.6H127.973C128.061 7.6 128.133 7.628 128.189 7.684C128.245 7.74 128.273 7.812 128.273 7.9V8.704C128.273 8.792 128.245 8.864 128.189 8.92C128.133 8.968 128.061 8.992 127.973 8.992H124.037V11.092H127.709C127.797 11.092 127.869 11.12 127.925 11.176C127.981 11.232 128.009 11.304 128.009 11.392V12.148C128.009 12.236 127.981 12.308 127.925 12.364C127.869 12.412 127.797 12.436 127.709 12.436H124.037V14.608H128.069C128.157 14.608 128.229 14.636 128.285 14.692C128.341 14.74 128.369 14.808 128.369 14.896V15.712C128.369 15.8 128.341 15.872 128.285 15.928C128.229 15.976 128.157 16 128.069 16H122.681ZM133.039 16.12C131.935 16.12 131.079 15.84 130.471 15.28C129.871 14.712 129.551 13.908 129.511 12.868C129.503 12.652 129.499 12.3 129.499 11.812C129.499 11.316 129.503 10.956 129.511 10.732C129.551 9.708 129.875 8.912 130.483 8.344C131.091 7.768 131.943 7.48 133.039 7.48C133.751 7.48 134.371 7.604 134.899 7.852C135.427 8.092 135.835 8.424 136.123 8.848C136.419 9.272 136.575 9.748 136.591 10.276V10.3C136.591 10.364 136.563 10.42 136.507 10.468C136.459 10.508 136.403 10.528 136.339 10.528H135.175C135.079 10.528 135.007 10.508 134.959 10.468C134.911 10.42 134.871 10.34 134.839 10.228C134.719 9.732 134.511 9.384 134.215 9.184C133.919 8.976 133.527 8.872 133.039 8.872C131.895 8.872 131.299 9.512 131.251 10.792C131.243 11.008 131.239 11.34 131.239 11.788C131.239 12.236 131.243 12.576 131.251 12.808C131.299 14.088 131.895 14.728 133.039 14.728C133.519 14.728 133.907 14.628 134.203 14.428C134.507 14.22 134.719 13.868 134.839 13.372C134.871 13.26 134.911 13.184 134.959 13.144C135.007 13.096 135.079 13.072 135.175 13.072H136.339C136.411 13.072 136.471 13.096 136.519 13.144C136.575 13.192 136.599 13.252 136.591 13.324C136.575 13.852 136.419 14.328 136.123 14.752C135.835 15.176 135.427 15.512 134.899 15.76C134.371 16 133.751 16.12 133.039 16.12ZM138.11 13.096C138.03 13.096 137.962 13.068 137.906 13.012C137.85 12.956 137.822 12.888 137.822 12.808V11.992C137.822 11.912 137.85 11.844 137.906 11.788C137.962 11.732 138.03 11.704 138.11 11.704H141.806C141.894 11.704 141.962 11.732 142.01 11.788C142.066 11.836 142.094 11.904 142.094 11.992V12.808C142.094 12.888 142.066 12.956 142.01 13.012C141.954 13.068 141.886 13.096 141.806 13.096H138.11ZM147.02 16.12C145.924 16.12 145.072 15.844 144.464 15.292C143.856 14.74 143.536 13.92 143.504 12.832C143.496 12.6 143.492 12.26 143.492 11.812C143.492 11.356 143.496 11.012 143.504 10.78C143.536 9.716 143.864 8.9 144.488 8.332C145.112 7.764 145.956 7.48 147.02 7.48C148.076 7.48 148.916 7.764 149.54 8.332C150.172 8.9 150.504 9.716 150.536 10.78C150.552 11.244 150.56 11.588 150.56 11.812C150.56 12.028 150.552 12.368 150.536 12.832C150.504 13.92 150.18 14.74 149.564 15.292C148.956 15.844 148.108 16.12 147.02 16.12ZM147.02 14.728C147.556 14.728 147.98 14.568 148.292 14.248C148.604 13.928 148.772 13.436 148.796 12.772C148.812 12.292 148.82 11.968 148.82 11.8C148.82 11.616 148.812 11.292 148.796 10.828C148.772 10.172 148.6 9.684 148.28 9.364C147.96 9.036 147.54 8.872 147.02 8.872C146.492 8.872 146.068 9.036 145.748 9.364C145.428 9.684 145.26 10.172 145.244 10.828C145.236 11.06 145.232 11.384 145.232 11.8C145.232 12.208 145.236 12.532 145.244 12.772C145.26 13.428 145.424 13.92 145.736 14.248C146.056 14.568 146.484 14.728 147.02 14.728ZM154.26 16C154.18 16 154.112 15.972 154.056 15.916C154 15.86 153.972 15.792 153.972 15.712V9.1H151.752C151.672 9.1 151.604 9.072 151.548 9.016C151.492 8.96 151.464 8.888 151.464 8.8V7.9C151.464 7.812 151.488 7.74 151.536 7.684C151.592 7.628 151.664 7.6 151.752 7.6H157.884C157.972 7.6 158.044 7.628 158.1 7.684C158.156 7.74 158.184 7.812 158.184 7.9V8.8C158.184 8.888 158.156 8.96 158.1 9.016C158.044 9.072 157.972 9.1 157.884 9.1H155.676V15.712C155.676 15.792 155.648 15.86 155.592 15.916C155.544 15.972 155.476 16 155.388 16H154.26ZM159.689 16C159.609 16 159.541 15.972 159.485 15.916C159.429 15.86 159.401 15.792 159.401 15.712V7.9C159.401 7.812 159.425 7.74 159.473 7.684C159.529 7.628 159.601 7.6 159.689 7.6H164.981C165.069 7.6 165.141 7.628 165.197 7.684C165.253 7.74 165.281 7.812 165.281 7.9V8.704C165.281 8.792 165.253 8.864 165.197 8.92C165.141 8.968 165.069 8.992 164.981 8.992H161.045V11.092H164.717C164.805 11.092 164.877 11.12 164.933 11.176C164.989 11.232 165.017 11.304 165.017 11.392V12.148C165.017 12.236 164.989 12.308 164.933 12.364C164.877 12.412 164.805 12.436 164.717 12.436H161.045V14.608H165.077C165.165 14.608 165.237 14.636 165.293 14.692C165.349 14.74 165.377 14.808 165.377 14.896V15.712C165.377 15.8 165.349 15.872 165.293 15.928C165.237 15.976 165.165 16 165.077 16H159.689ZM172.433 16C172.353 16 172.285 15.972 172.229 15.916C172.173 15.86 172.145 15.792 172.145 15.712V9.124H169.553V10.612C169.553 11.932 169.461 12.976 169.277 13.744C169.101 14.504 168.797 15.064 168.365 15.424C167.933 15.776 167.329 15.964 166.553 15.988C166.473 15.996 166.401 15.972 166.337 15.916C166.281 15.852 166.253 15.78 166.253 15.7V14.776C166.253 14.696 166.277 14.632 166.325 14.584C166.381 14.536 166.449 14.504 166.529 14.488C167.001 14.416 167.349 14.048 167.573 13.384C167.805 12.712 167.921 11.716 167.921 10.396V7.888C167.921 7.8 167.949 7.732 168.005 7.684C168.061 7.628 168.129 7.6 168.209 7.6H173.537C173.625 7.6 173.697 7.628 173.753 7.684C173.809 7.74 173.837 7.812 173.837 7.9V15.712C173.837 15.792 173.809 15.86 173.753 15.916C173.697 15.972 173.625 16 173.537 16H172.433ZM175.99 16C175.91 16 175.842 15.972 175.786 15.916C175.73 15.86 175.702 15.792 175.702 15.712V7.888C175.702 7.8 175.73 7.732 175.786 7.684C175.842 7.628 175.91 7.6 175.99 7.6H177.094C177.182 7.6 177.254 7.628 177.31 7.684C177.366 7.74 177.394 7.808 177.394 7.888V10.624H178.93C179.89 10.624 180.63 10.852 181.15 11.308C181.67 11.756 181.93 12.412 181.93 13.276C181.93 13.796 181.814 14.264 181.582 14.68C181.358 15.088 181.018 15.412 180.562 15.652C180.114 15.884 179.57 16 178.93 16H175.99ZM178.858 14.644C179.274 14.644 179.598 14.52 179.83 14.272C180.07 14.016 180.19 13.68 180.19 13.264C180.19 12.84 180.074 12.52 179.842 12.304C179.618 12.08 179.29 11.968 178.858 11.968H177.394V14.644H178.858Z" fill="white"/>
</g>
<defs>
<clipPath id="clip0">
<path d="M0 0H220V78H0V0Z" fill="white"/>
</clipPath>
</defs>
</svg>
