<svg width="54" height="54" viewBox="0 0 54 54" fill="none" xmlns="http://www.w3.org/2000/svg">
<circle cx="27" cy="27" r="26" fill="white" stroke="#C7A462" stroke-width="2"/>
<mask id="path-2-inside-1" fill="white">
<path fill-rule="evenodd" clip-rule="evenodd" d="M41.9672 33C41.989 32.6695 42 32.336 42 32C42 23.7157 35.2843 17 27 17C18.7157 17 12 23.7157 12 32C12 32.336 12.011 32.6695 12.0328 33H41.9672Z"/>
</mask>
<path d="M41.9672 33V35H43.8399L43.9629 33.1314L41.9672 33ZM12.0328 33L10.0371 33.1314L10.1601 35H12.0328V33ZM40 32C40 32.2922 39.9904 32.5818 39.9715 32.8686L43.9629 33.1314C43.9875 32.7571 44 32.3799 44 32H40ZM27 19C34.1797 19 40 24.8203 40 32H44C44 22.6112 36.3888 15 27 15V19ZM14 32C14 24.8203 19.8203 19 27 19V15C17.6112 15 10 22.6112 10 32H14ZM14.0285 32.8686C14.0096 32.5818 14 32.2922 14 32H10C10 32.3799 10.0125 32.7571 10.0371 33.1314L14.0285 32.8686ZM12.0328 35H41.9672V31H12.0328V35Z" fill="black" mask="url(#path-2-inside-1)"/>
<rect x="23" y="12" width="8" height="2" fill="black"/>
<rect x="14" y="36" width="26" height="2" fill="black"/>
<path d="M27 22.0114C24.75 21.8658 19.8 23.0597 18 29" stroke="black" stroke-width="2"/>
</svg>
