<svg width="47" height="28" viewBox="0 0 47 28" fill="none" xmlns="http://www.w3.org/2000/svg">
<path fill-rule="evenodd" clip-rule="evenodd" d="M23.2444 5.72205e-05C17.1507 5.72205e-05 11.6457 1.53445 7.30347 4.37175L0 4.37825C0 4.37825 1.72321 6.67867 2.28249 8.99838C0.859589 10.9333 0.00564575 13.3132 0.00564575 15.8947C0.00564575 22.3253 5.24063 27.5491 11.6738 27.5491C15.3488 27.5491 18.6266 25.8438 20.7674 23.1812L23.2487 26.8901L25.7543 23.1495C26.8796 24.5828 28.3307 25.7407 30.0363 26.5233C32.8691 27.8253 36.0377 27.9525 38.9608 26.8755C44.9967 24.6477 48.0922 17.9252 45.8633 11.8951C45.4692 10.8274 44.9281 9.85505 44.2811 8.98781C44.8311 6.65352 46.575 4.32281 46.575 4.32281L38.7921 4.31713C34.4258 1.49686 29.1212 5.72205e-05 23.2444 5.72205e-05ZM34.5466 4.28682C33.3242 4.32369 32.0862 4.54596 30.8747 4.991C27.9505 6.07321 25.6241 8.22569 24.3201 11.0574C23.7312 12.3349 23.3983 13.6856 23.2919 15.0446C22.8588 9.08721 17.9421 4.36107 11.9037 4.24164C15.2443 2.81305 19.0814 2.03566 23.2415 2.03566C27.4286 2.03566 31.2096 2.79072 34.5466 4.28682ZM2.36176 15.8945C2.36176 10.7592 6.53941 6.58367 11.6734 6.58367C16.8045 6.58367 20.9809 10.7592 20.9809 15.8945C20.9809 21.0239 16.8045 25.2003 11.6734 25.2003C6.53983 25.2003 2.36176 21.0243 2.36176 15.8945ZM31.0726 7.20114C32.1261 6.81253 33.2059 6.62721 34.2687 6.62505L34.2689 6.62513C38.0647 6.61724 41.6435 8.9476 43.033 12.7113C44.809 17.5225 42.3384 22.8898 37.5226 24.673C35.1903 25.5325 32.6604 25.4323 30.3999 24.389C28.1408 23.3492 26.4244 21.4914 25.5654 19.1603V19.1587C24.7039 16.8264 24.8011 14.2977 25.8397 12.0393C26.8804 9.78164 28.7378 8.06214 31.0726 7.20114Z" fill="white"/>
<path d="M13.4576 15.7894C13.4576 16.8571 12.5883 17.729 11.5196 17.729C10.4467 17.729 9.58057 16.8571 9.58057 15.7894C9.58057 14.7186 10.4467 13.8514 11.5196 13.8514C12.5883 13.8514 13.4576 14.7186 13.4576 15.7894Z" fill="white"/>
<path d="M34.8958 13.8516C33.8219 13.8516 32.959 14.7192 32.959 15.79C32.959 16.8577 33.8219 17.7293 34.8958 17.7293C35.9661 17.7293 36.8318 16.8577 36.8318 15.79C36.8318 14.7192 35.9661 13.8516 34.8958 13.8516Z" fill="white"/>
<path fill-rule="evenodd" clip-rule="evenodd" d="M5.76221 15.79C5.76221 12.6162 8.3479 10.0316 11.5281 10.0316C14.7001 10.0316 17.2819 12.6161 17.2819 15.79C17.2819 18.9655 14.7 21.5518 11.5281 21.5518C8.34785 21.5518 5.76221 18.9656 5.76221 15.79ZM29.1331 15.79C29.1331 12.6162 31.7178 10.0316 34.8949 10.0316C38.0697 10.0316 40.6524 12.6161 40.6524 15.79C40.6524 18.9655 38.0698 21.5518 34.8949 21.5518C31.7178 21.5518 29.1331 18.9656 29.1331 15.79ZM7.74445 15.7903C7.74445 13.7095 9.44147 12.0157 11.528 12.0157C13.6052 12.0157 15.297 13.7094 15.297 15.7903C15.297 17.8722 13.6052 19.5698 11.528 19.5698C9.44147 19.5698 7.74445 17.8721 7.74445 15.7903ZM31.1177 15.7903C31.1177 13.7095 32.8124 12.0157 34.8948 12.0157C36.9756 12.0157 38.6678 13.7094 38.6678 15.7903C38.6678 17.8722 36.9756 19.5698 34.8948 19.5698C32.8124 19.5698 31.1177 17.8721 31.1177 15.7903Z" fill="white"/>
</svg>
