<svg width="18" height="19" viewBox="0 0 18 19" fill="none" xmlns="http://www.w3.org/2000/svg">
<path d="M17.5468 15.9619C17.3608 16.4338 17.0797 16.8624 16.721 17.221C16.3624 17.5797 15.9338 17.8608 15.4619 18.0468C14.0189 18.6188 10.595 18.4868 9 18.4868C7.40503 18.4868 3.97609 18.6138 2.53812 18.0468C2.06623 17.8608 1.63764 17.5797 1.27897 17.221C0.920297 16.8624 0.639205 16.4338 0.453155 15.9619C-0.118834 14.5199 0.0131632 11.095 0.0131632 9.5C0.0131632 7.90503 -0.113834 4.47609 0.453155 3.03812C0.639205 2.56623 0.920297 2.13764 1.27897 1.77897C1.63764 1.4203 2.06623 1.13921 2.53812 0.953155C3.98009 0.381166 7.40503 0.513163 9 0.513163C10.595 0.513163 14.0239 0.386166 15.4619 0.953155C15.9338 1.13921 16.3624 1.4203 16.721 1.77897C17.0797 2.13764 17.3608 2.56623 17.5468 3.03812C18.1188 4.48109 17.9868 7.90503 17.9868 9.5C17.9868 11.095 18.1188 14.5239 17.5468 15.9619ZM9 3.8801C8.2616 3.87892 7.53023 4.02346 6.84781 4.30546C6.16538 4.58745 5.54531 5.00135 5.02314 5.52343C4.50097 6.04551 4.08696 6.6655 3.80484 7.34788C3.52273 8.03026 3.37805 8.7616 3.3791 9.5C3.37792 10.2385 3.5225 10.9699 3.80455 11.6524C4.08661 12.3349 4.5006 12.955 5.02278 13.4772C5.54497 13.9994 6.16508 14.4134 6.84757 14.6954C7.53007 14.9775 8.26152 15.1221 9 15.1209C9.73848 15.1221 10.4699 14.9775 11.1524 14.6954C11.8349 14.4134 12.455 13.9994 12.9772 13.4772C13.4994 12.955 13.9134 12.3349 14.1954 11.6524C14.4775 10.9699 14.6221 10.2385 14.6209 9.5C14.6221 8.76152 14.4775 8.03007 14.1954 7.34757C13.9134 6.66508 13.4994 6.04497 12.9772 5.52278C12.455 5.0006 11.8349 4.58661 11.1524 4.30455C10.4699 4.0225 9.73848 3.87792 9 3.8791V3.8801ZM16.1619 3.65011C16.1619 3.47795 16.128 3.30747 16.0621 3.14842C15.9962 2.98936 15.8996 2.84484 15.7779 2.72311C15.6562 2.60137 15.5116 2.5048 15.3526 2.43892C15.1935 2.37304 15.0231 2.33913 14.8509 2.33913C14.6787 2.33913 14.5083 2.37304 14.3492 2.43892C14.1902 2.5048 14.0456 2.60137 13.9239 2.72311C13.8022 2.84484 13.7056 2.98936 13.6397 3.14842C13.5738 3.30747 13.5399 3.47795 13.5399 3.65011C13.5399 3.9978 13.678 4.33125 13.9239 4.57711C14.1697 4.82296 14.5032 4.96108 14.8509 4.96108C15.1986 4.96108 15.532 4.82296 15.7779 4.57711C16.0238 4.33125 16.1619 3.9978 16.1619 3.65011Z" fill="white"/>
<path d="M8.99935 13.1C7.01938 13.1 5.39941 11.486 5.39941 9.50008C5.39941 7.51412 7.01338 5.90015 8.99935 5.90015C10.9853 5.90015 12.5993 7.51412 12.5993 9.50008C12.5993 11.486 10.9793 13.1 8.99935 13.1Z" fill="white"/>
</svg>
