<svg width="10" height="14" viewBox="0 0 10 14" fill="none" xmlns="http://www.w3.org/2000/svg">
<path fill-rule="evenodd" clip-rule="evenodd" d="M4.99809 0C2.24435 0 0 2.18292 0 4.86501C0 6.6884 2.32169 9.75545 3.9003 11.8409C4.35025 12.4353 4.73984 12.95 4.99809 13.3333C5.25688 12.9492 5.64774 12.4332 6.09915 11.8372C7.67874 9.75183 10 6.68732 10 4.86501C10 2.18292 7.75565 0 4.99809 0ZM6.6667 5C6.6667 5.92048 5.92052 6.66667 5.00005 6.66667C4.07956 6.66667 3.33337 5.92048 3.33337 5C3.33337 4.07953 4.07956 3.33334 5.00005 3.33334C5.92052 3.33334 6.6667 4.07953 6.6667 5Z" fill="#C7A462"/>
</svg>
