<svg width="76" height="13" viewBox="0 0 76 13" fill="none" xmlns="http://www.w3.org/2000/svg">
<path fill-rule="evenodd" clip-rule="evenodd" d="M29.8101 1.30752C29.8101 1.00283 29.9318 0.710621 30.1484 0.495174C30.3651 0.279728 30.6589 0.158691 30.9653 0.158691C31.2716 0.158691 31.5654 0.279728 31.782 0.495174C31.9987 0.710621 32.1204 1.00283 32.1204 1.30752C32.1092 1.60478 31.9826 1.88618 31.7672 2.09256C31.5518 2.29895 31.2644 2.41426 30.9653 2.41426C30.6662 2.41426 30.3787 2.29895 30.1633 2.09256C29.9479 1.88618 29.8213 1.60478 29.8101 1.30752ZM48.0353 8.96859C48.0355 8.33113 48.5518 7.81611 49.188 7.81611C49.4952 7.81611 49.7899 7.93749 50.0071 8.15353C50.2243 8.36958 50.3464 8.6626 50.3464 8.96814C50.3464 9.27368 50.2243 9.5667 50.0071 9.78275C49.7899 9.99879 49.4952 10.1202 49.188 10.1202C48.5526 10.1202 48.0355 9.60442 48.0353 8.96859ZM9.16639 6.56185C9.16639 7.68507 9.85818 8.47069 10.8524 8.47069C11.8684 8.47069 12.5521 7.70267 12.5521 6.56185C12.5521 5.43942 11.8531 4.6546 10.8532 4.6546C9.85816 4.6546 9.16639 5.43942 9.16639 6.56185ZM7.22052 6.56185C7.22052 4.485 8.7481 2.97697 10.8524 2.97697H10.8532C12.9656 2.97697 14.4988 4.485 14.4988 6.56264C14.4988 8.63949 12.9656 10.1467 10.8524 10.1467C8.74891 10.1467 7.22052 8.63949 7.22052 6.56185ZM27.2977 6.35544C27.407 6.47092 27.4995 6.60098 27.5728 6.74185H27.5736L28.3298 8.16588L29.4704 10.0411H27.9396C27.362 10.0411 27.0555 9.94592 26.7475 9.38431L25.6454 7.31546C25.5738 7.19226 25.4194 7.16586 25.1918 7.16586H25.0043V10.0411H23.0062L23.0038 0.456112H23.9449C24.4944 0.456112 25.0035 0.566514 25.0035 1.37853V5.43942H25.3213C25.5602 5.43942 25.7194 5.38182 25.7983 5.26662L27.1939 3.11857H29.4495L27.5913 5.86423C27.4964 6.00343 27.3975 6.12344 27.3009 6.22504L27.2333 6.28904L27.2977 6.35544ZM35.2436 3.79058C35.6072 3.41058 36.2556 2.96097 37.2723 2.96097V2.96177C38.8964 2.96177 39.7547 3.88659 39.7547 5.63543L39.7579 10.0387H38.8136C38.092 10.0387 37.7582 9.70351 37.7582 8.9867V5.97143C37.7582 5.13141 37.516 4.80581 36.8967 4.80581C36.1268 4.80581 35.5107 5.27062 35.2902 6.01863C35.2066 6.26584 35.1664 6.53624 35.1664 6.84825V10.0387H33.1819L33.1763 3.11617H34.0716C34.613 3.11617 34.9733 3.33938 35.0795 3.74658L35.123 3.91219L35.2436 3.79058ZM30.0487 3.11857H30.9891L30.9899 3.11937C31.6938 3.11937 32.034 3.46258 32.034 4.17059L32.03 10.0387H32.0268V10.0411H31.5619L31.0937 10.0427L31.0583 10.0411H30.0552V8.47149L30.0487 3.11857ZM16.9595 6.56185C16.9595 7.68507 17.652 8.47069 18.6463 8.47069H18.6471C19.6623 8.47069 20.346 7.70267 20.346 6.56185C20.346 5.43942 19.6446 4.6546 18.6471 4.6546C17.6521 4.6546 16.9595 5.43942 16.9595 6.56185ZM15.012 6.56185C15.012 4.485 16.5404 2.97697 18.6463 2.97697H18.6471C20.7571 2.97697 22.2935 4.485 22.2935 6.56264C22.2935 8.63949 20.7571 10.1467 18.6471 10.1467C16.5404 10.1467 15.012 8.63949 15.012 6.56185ZM61.1795 8.47069C60.1852 8.47069 59.4918 7.68507 59.4918 6.56184C59.4918 5.43942 60.1852 4.6546 61.1795 4.6546C62.1785 4.6546 62.8792 5.43942 62.8792 6.56184C62.8792 7.70267 62.1954 8.47069 61.1795 8.47069ZM61.1795 2.97696C59.0735 2.97696 57.546 4.485 57.546 6.56184C57.546 8.63949 59.0735 10.1467 61.1795 10.1467C63.2902 10.1467 64.8259 8.63949 64.8259 6.56264C64.8259 4.485 63.2894 2.97696 61.1795 2.97696ZM42.4671 6.34279C42.4671 7.22521 42.8532 8.16603 43.9383 8.16603C44.5609 8.16603 45.3033 7.86123 45.3033 6.40759C45.3033 4.86676 44.4644 4.68756 43.8345 4.68756C42.566 4.68756 42.4671 5.95398 42.4671 6.34279ZM45.5222 3.52273C45.6678 3.24993 45.9573 3.10032 46.3338 3.10032H47.2565L47.2492 9.45006C47.2492 11.8709 45.2752 12.7309 43.586 12.7309C42.7655 12.7309 41.8573 12.5109 41.1591 12.1429L41.0215 12.0701L41.2443 11.5037L41.402 11.1165C41.5717 10.6965 41.8195 10.5917 42.2394 10.7181C42.5628 10.8349 43.0446 10.9629 43.5747 10.9629C44.6647 10.9629 45.2655 10.4525 45.2655 9.52766V9.33566L45.1127 9.45006C44.7169 9.74767 44.2174 9.89487 43.586 9.89487C41.7367 9.89487 40.444 8.45484 40.444 6.39399C40.444 4.33235 41.6932 2.94592 43.549 2.94592C44.4813 2.94592 45.0556 3.27313 45.3758 3.54833L45.4675 3.62833L45.5222 3.52273ZM3.46296 8.39134L1.84772 8.38974V6.46969C1.84772 6.05849 2.00779 5.84568 2.36093 5.79608H3.46296C4.24886 5.79608 4.75724 6.28889 4.75804 7.08651C4.75724 7.90573 4.26173 8.39054 3.46296 8.39054V8.39134ZM1.84772 3.21042V2.70481C1.84772 2.2624 2.03596 2.052 2.44862 2.0248H3.27555C3.98424 2.0248 4.40896 2.4464 4.40896 3.15282C4.40896 3.69043 4.11776 4.31845 3.30128 4.31845H1.84772V3.21042ZM5.52547 5.12726L5.23345 4.96406L5.48846 4.74726C5.78528 4.49365 6.28162 3.92324 6.28162 2.93922C6.28162 1.43198 5.10718 0.45916 3.28842 0.45916H0.97654C0.716406 0.468593 0.469906 0.577204 0.288101 0.762486C0.106297 0.947767 0.00313187 1.19551 0 1.45438V10.0066H3.32941C5.35089 10.0066 6.65564 8.91215 6.65564 7.21691C6.65564 6.30409 6.23416 5.52407 5.52547 5.12726ZM72.5074 3.25635C72.8761 3.07869 73.2802 2.98567 73.6899 2.98417C75.2215 2.98417 76.0001 3.87619 76.0001 5.63543L75.9985 10.0379H75.1072C74.4066 10.0379 74.0945 9.72592 74.0945 9.02991V5.94984C74.0945 5.06662 73.8789 4.73861 73.2949 4.73861C72.4889 4.73861 71.9693 5.45863 71.8164 6.16104C71.7408 6.41065 71.7094 6.66026 71.7094 6.99386V10.0379H69.8014V5.94984C69.8014 5.18502 69.5488 4.78901 69.0339 4.73941C68.1982 4.66021 67.7011 5.45143 67.5201 6.18744C67.4533 6.46345 67.4195 6.72666 67.4195 6.99386V10.0379H65.5251L65.5332 3.14178H66.3674C66.887 3.14178 67.2305 3.35218 67.335 3.73619L67.4074 4.0026L67.5957 3.80019C67.8829 3.49618 68.5015 2.98417 69.4241 2.98417C70.3033 2.98417 70.9356 3.32258 71.304 3.989L71.4166 4.1914L71.5598 4.0106C71.8149 3.69177 72.1387 3.43401 72.5074 3.25635ZM54.5538 8.5051C55.6277 8.5051 56.4426 7.65068 56.4482 7.64348L56.5568 7.52907L57.3789 8.88511L57.3242 8.95231C57.3146 8.96431 56.2914 10.1939 54.4107 10.1939C52.242 10.1939 50.6702 8.6787 50.6702 6.59065C50.6702 4.50101 52.2597 2.98417 54.4509 2.98417C55.4749 2.98417 56.9977 3.41618 56.9977 4.60661V5.50903L55.9599 5.50743C55.8066 5.50828 55.6573 5.4588 55.5351 5.36666C55.413 5.27452 55.3248 5.14488 55.2843 4.99782L55.2754 4.96182C55.2119 4.74821 54.8064 4.62181 54.4509 4.62181C53.3537 4.62181 52.5879 5.42583 52.5879 6.57625C52.5879 7.90828 53.5757 8.5051 54.5538 8.5051Z" fill="white"/>
</svg>
