<svg width="36" height="35" viewBox="0 0 36 35" fill="none" xmlns="http://www.w3.org/2000/svg">
<path fill-rule="evenodd" clip-rule="evenodd" d="M28.5783 0C32.2249 0 35.1867 2.9826 35.1867 6.65634L35.1867 28.0126C35.1867 31.6854 32.2249 34.669 28.5784 34.669H6.60839C6.59363 34.669 6.57888 34.669 6.56414 34.6689C6.55271 34.6688 6.54129 34.6687 6.52987 34.6685H0.00056076L0.000553131 28.0997L0.000102997 28.0503L0 28.0126V6.65634C0 2.9826 2.96186 0 6.60836 0H28.5783ZM15.9915 22.9473L13.1574 22.9444V19.5305C13.1574 18.801 13.4383 18.4214 14.0579 18.3346H15.9915C17.3704 18.3346 18.2624 19.2105 18.2624 20.6282C18.2624 22.0842 17.393 22.9459 15.9915 22.9473ZM13.1574 13.739V12.8404C13.1574 12.0541 13.4877 11.6801 14.2117 11.6318H15.6626C16.906 11.6318 17.6512 12.3811 17.6512 13.6367C17.6512 14.5922 17.1403 15.7084 15.7078 15.7084H13.1574V13.739ZM19.6102 17.1459L19.0979 16.8559L19.5453 16.4705C20.0661 16.0198 20.9383 15.006 20.9383 13.257C20.9383 10.5781 18.8763 8.85053 15.6852 8.85053H12.0439V8.84911H11.6289C10.6833 8.88466 9.9254 9.6596 9.91553 10.618V25.8181H15.7572C19.304 25.8181 21.5932 23.8729 21.5932 20.8599C21.5932 19.2375 20.8536 17.8512 19.6102 17.1459ZM25.1901 21.6183C24.0448 21.6183 23.1152 22.5577 23.1152 23.7188C23.1152 24.8785 24.0448 25.8194 25.1901 25.8194C26.3383 25.8194 27.2722 24.8785 27.2722 23.7188C27.2722 22.5577 26.3383 21.6183 25.1901 21.6183Z" fill="white"/>
</svg>
