<svg width="71" height="15" viewBox="0 0 71 15" fill="none" xmlns="http://www.w3.org/2000/svg">
<path fill-rule="evenodd" clip-rule="evenodd" d="M12.2918 1.40278C12.2918 0.892824 12.707 0.475342 13.2184 0.475342C13.7284 0.475342 14.1443 0.892807 14.1443 1.40278C14.1443 1.91275 13.7284 2.3278 13.2184 2.3278C12.7069 2.3278 12.2918 1.91273 12.2918 1.40278ZM3.53004 1.34019L3.63876 1.30124L3.63873 3.65355H5.43602V4.88285H3.63873V8.69241C3.63873 9.81044 3.91405 10.226 4.64731 10.226C4.83633 10.226 5.07818 10.1735 5.38405 10.0629L5.4944 10.0272L5.50981 11.2987L5.45058 11.3157C5.06837 11.418 4.68771 11.469 4.28784 11.469C2.72163 11.469 2.08163 10.7038 2.08163 8.82546V4.88283H0.570801V3.65354H2.12709V1.82135L3.53004 1.34019ZM19.4987 3.47338C18.431 3.47338 17.5318 3.98334 16.933 4.90146V3.65351H15.509V14.4637H17.0661V10.2711C17.6285 11.036 18.4356 11.4541 19.4394 11.4541C21.4086 11.4541 22.6786 9.83986 22.6786 7.34513C22.6786 5.02905 21.403 3.47338 19.4987 3.47338ZM8.38461 4.89985C8.84056 4.00611 9.56845 3.51801 10.4715 3.51801L11.1401 3.57145L11.0898 5.08798L10.9892 5.05877C10.7794 4.99957 10.6048 4.97276 10.4277 4.97276C9.19751 4.97276 8.51846 5.86056 8.51846 7.47921V11.3334H6.96139V3.65353H8.38461V4.89985ZM12.4417 3.65351V11.3334H13.9996V3.65351H13.9168H12.4417ZM19.1245 4.76196C20.3282 4.76196 21.0491 5.76102 21.0491 7.43475C21.0491 9.1396 20.2877 10.1952 19.0652 10.1952C17.8324 10.1952 17.0659 9.14459 17.0659 7.44855C17.0659 5.81744 17.874 4.76196 19.1245 4.76196Z" fill="white"/>
<path fill-rule="evenodd" clip-rule="evenodd" d="M36.7272 -0.00012207V4.70846C36.1534 3.90924 35.3549 3.48487 34.3246 3.48487C32.423 3.48487 31.1456 5.05415 31.1456 7.3853C31.1456 9.78758 32.4387 11.4659 34.2963 11.4659C35.3956 11.4659 36.2512 10.9788 36.8473 10.0321V11.345H38.2859V-0.000244141L36.7272 -0.00012207ZM48.4405 0.486734C47.929 0.486734 47.5147 0.904207 47.5147 1.41416C47.5147 1.92411 47.929 2.33917 48.4405 2.33917C48.9505 2.33917 49.3663 1.92413 49.3663 1.41416C49.3663 0.90419 48.9505 0.486734 48.4405 0.486734ZM24.6792 4.03421C25.4451 3.66497 26.2788 3.48487 27.2286 3.48487C29.1438 3.48487 30.1123 4.56715 30.1123 6.69578V11.345H28.7037V10.2358C28.1133 11.0293 27.2826 11.4504 26.2103 11.4504C24.7526 11.4504 23.7339 10.5053 23.7339 9.15256C23.7339 7.46692 25.1468 6.53821 27.709 6.53821H28.5991V6.47329C28.5991 5.34488 27.9539 4.69796 26.827 4.69796C26.1939 4.69796 25.5028 4.90732 24.7701 5.31704L24.6492 5.38601L24.6313 4.05611L24.6792 4.03421ZM60.9926 3.48487C58.6516 3.48487 57.1968 5.02549 57.1968 7.5062C57.1968 9.98533 58.6516 11.5251 60.9926 11.5251C63.3434 11.5251 64.8046 9.98533 64.8046 7.5062C64.8046 5.02553 63.3434 3.48487 60.9926 3.48487ZM67.6768 4.91133C68.1343 4.0176 68.8643 3.5295 69.7637 3.5295L70.4339 3.58294L70.382 5.09946L70.2814 5.07025C70.0721 5.01105 69.8991 4.98424 69.7215 4.98424C68.4897 4.98424 67.8123 5.87203 67.8123 7.49066V11.3448H66.2552V3.66501H67.6768V4.91133ZM53.869 3.57656C52.1808 3.57656 51.0462 4.40199 51.0462 5.63427C51.0462 6.71545 51.7891 7.28618 53.1591 7.95246C54.0221 8.37878 54.476 8.62813 54.476 9.22636C54.476 9.83913 53.919 10.2374 53.0601 10.2374C52.4483 10.2374 51.7729 10.0634 51.1046 9.73672L50.9902 9.67912L50.9391 11.0334L50.9934 11.0553C51.6322 11.3082 52.3067 11.4366 53 11.4366C54.9053 11.4366 56.1361 10.5272 56.1361 9.1225C56.1361 7.94993 55.3556 7.35742 54.007 6.72803C53.0182 6.26532 52.6032 5.99059 52.6032 5.50037C52.6032 5.03404 53.0646 4.73036 53.7765 4.73036C54.4205 4.73036 55.0498 4.87251 55.6444 5.15552L55.7539 5.20745L55.8245 3.88324L55.7645 3.8597C55.1153 3.67224 54.4808 3.57656 53.869 3.57656ZM43.0018 11.3448L39.2377 3.665H40.9936L43.0342 8.09773L45.2429 3.665H46.8706L43.0018 11.3448ZM47.6624 3.665V11.3448H49.2211V3.665H49.1367H47.6624ZM63.1707 7.49074C63.1707 5.80406 62.3224 4.71411 61.0075 4.71411C59.7145 4.71411 58.8451 5.8321 58.8451 7.49074C58.8451 9.14161 59.7145 10.2503 61.0075 10.2503C62.3224 10.2503 63.1707 9.16703 63.1707 7.49074ZM36.7265 7.47614C36.7265 5.75464 35.9593 4.73034 34.6704 4.73034C33.5196 4.73034 32.7765 5.80815 32.7765 7.47614C32.7765 9.14151 33.5137 10.1781 34.6988 10.1781C35.9316 10.1781 36.7265 9.11559 36.7265 7.47614ZM27.7978 7.63517H28.5986V8.10499C28.5986 9.42866 27.8026 10.282 26.5693 10.282C25.8173 10.282 25.2905 9.78639 25.2905 9.07703C25.2905 8.14749 26.1812 7.63517 27.7978 7.63517Z" fill="white"/>
</svg>
