<svg width="19" height="19" viewBox="0 0 19 19" fill="none" xmlns="http://www.w3.org/2000/svg">
<path fill-rule="evenodd" clip-rule="evenodd" d="M18.0107 11.3554C18.1424 10.7204 18.2084 10.1018 18.2084 9.49993C18.2084 8.32069 17.9798 7.19296 17.522 6.11675C17.0643 5.04062 16.4458 4.11297 15.6665 3.33362C14.8872 2.55428 13.9596 1.9358 12.8835 1.47802C11.807 1.02054 10.6796 0.791607 9.50017 0.791607C8.89819 0.791607 8.27962 0.857636 7.64463 0.989606C6.78698 0.329883 5.82209 0 4.75002 0C3.43887 0 2.31944 0.463803 1.39165 1.39141C0.463768 2.31928 0 3.43869 0 4.74986C0 5.82191 0.329888 6.78678 0.989536 7.64442C0.857649 8.27936 0.79162 8.89796 0.79162 9.49993C0.79162 10.679 1.02038 11.8067 1.47804 12.883C1.93566 13.9592 2.55419 14.8869 3.33359 15.6663C4.1129 16.4456 5.0407 17.0639 6.11684 17.5217C7.19308 17.9794 8.32082 18.2082 9.50009 18.2082C10.102 18.2082 10.7206 18.1421 11.3559 18.0101C12.2134 18.6699 13.1782 19 14.2503 19C15.5613 19 16.6811 18.5359 17.6084 17.6084C18.5362 16.6805 19 15.5611 19 14.2498C18.9998 13.1779 18.67 12.2132 18.0107 11.3554ZM14.1014 13.1923C13.8295 13.6748 13.4644 14.0602 13.0069 14.3489C12.549 14.6376 12.044 14.8579 11.4915 15.0106C10.939 15.1631 10.3619 15.2395 9.7597 15.2395C8.36619 15.2395 7.16639 14.9694 6.16021 14.4291C5.15404 13.8888 4.65102 13.2397 4.65102 12.4808C4.65102 12.1099 4.75622 11.8009 4.96652 11.5533C5.17679 11.3058 5.48809 11.1824 5.90043 11.1824C6.13959 11.1824 6.36216 11.2483 6.56831 11.3801C6.77446 11.5121 6.9641 11.671 7.13736 11.8566C7.31062 12.0423 7.4981 12.2276 7.70017 12.4133C7.90212 12.5989 8.17013 12.7575 8.5041 12.8895C8.83814 13.0215 9.21543 13.0876 9.63613 13.0876C10.1721 13.0876 10.6049 12.9826 10.9351 12.7724C11.2648 12.5619 11.4297 12.2958 11.4297 11.9744C11.4297 11.6443 11.2979 11.397 11.0342 11.2321C10.853 11.1163 10.3909 10.9679 9.6487 10.7866L7.8425 10.3411C7.34775 10.2257 6.92302 10.0919 6.56835 9.93939C6.21368 9.78671 5.88379 9.58698 5.57873 9.33937C5.27375 9.09207 5.04282 8.78086 4.88611 8.40548C4.72944 8.03036 4.65111 7.59113 4.65111 7.08811C4.65111 6.48606 4.78928 5.9564 5.06544 5.49857C5.3416 5.04084 5.7088 4.68205 6.16632 4.42232C6.62394 4.16253 7.11669 3.96878 7.64458 3.84097C8.17226 3.71311 8.71657 3.64921 9.27734 3.64921C10.0692 3.64921 10.8193 3.74409 11.5286 3.93373C12.2378 4.12337 12.8233 4.40169 13.285 4.76866C13.7467 5.13576 13.9776 5.54602 13.9776 5.99951C13.9776 6.37046 13.8603 6.68809 13.625 6.9519C13.3904 7.21566 13.079 7.34764 12.6913 7.34764C12.4769 7.34764 12.2791 7.29811 12.0976 7.19916C11.9163 7.10024 11.7515 6.98071 11.6027 6.84051C11.4543 6.70039 11.2974 6.56222 11.1325 6.42618C10.9676 6.29014 10.7449 6.17264 10.4649 6.07368C10.1842 5.97472 9.86689 5.9252 9.51231 5.9252C8.3249 5.9252 7.73106 6.24248 7.73106 6.87759C7.73106 7.01771 7.76204 7.14145 7.82382 7.24864C7.88565 7.35582 7.9538 7.44243 8.02789 7.50842C8.10194 7.57449 8.22568 7.64039 8.39894 7.70642C8.5722 7.77249 8.71653 7.82002 8.83195 7.8487C8.94733 7.87755 9.12891 7.92084 9.37622 7.9785L10.6628 8.27533C11.0668 8.36614 11.4274 8.46102 11.7451 8.55985C12.0627 8.65898 12.4028 8.79905 12.7657 8.98054C13.1285 9.16195 13.4295 9.36389 13.6685 9.58659C13.9078 9.80945 14.1077 10.0916 14.2687 10.4338C14.4296 10.7761 14.5098 11.1535 14.5098 11.5657C14.5097 12.1676 14.3739 12.7099 14.1014 13.1923Z" fill="white"/>
</svg>
